<svg fill="none" xmlns="http://www.w3.org/2000/svg" viewBox="0 0 352 174">
  <path d="M58.812 150.057l-5.024-39.908c-1.98-15.712 9.267-28.45 25.135-28.45h26.534" stroke="currentColor" stroke-linecap="round" stroke-linejoin="round"/>
  <path d="M122.088 80.998l3.295-4.621-.867-6.204c-.232-.439-.471-.896-.716-1.368-17.992 2.666-20.181 10.175-16.141 18.216-29.846 5.804-42.84 51.428-35.076 73.075 2.212 6.152 3.987 12.305 10.558 12.375" stroke="currentColor" stroke-linecap="round" stroke-linejoin="round"/>
  <path class="svg-fill-accent-last" class="svg-fill-accent-last" d="M131.473 97.583v-.117c.976.095 1.923.1 2.837-.687 2.266-1.954 3.069-2.54 3.069-2.54s.206.245.57.662c.447-.82.912-1.672 1.388-2.533-9.78-7.543-17.249-11.37-17.249-11.37l-.552-.394-3.591 4.362s5.844 4.012 13.528 12.617zM178.746 168.394s-15.651-41.918-13.66-54.908c1.086-7.086-.617-15.121-2.969-21.33l-4.483.29-5.367 12.637c.35.086.701.158 1.051.205 0 0-.206 1.327-.713 4.377-.34 2.032.243 2.256.704 3.667.595.95 1.053 2.016.55 3.665-.165.539-.556 5.619-1.441 12.51a149.298 149.298 0 014.695 11.075c9.489 25.209 8.503 27.96 8.503 27.96l13.13-.148z" fill="#FFC1EE"/>
  <path d="M231.746 172.141c-1.126-7.383-9.16-47.012-55.119-81.773-1.03-6.21-3.635-15.984-17.022-20.554M168.814 111.279s-.494 13.388 2.449 23.013" stroke="currentColor" stroke-linecap="round" stroke-linejoin="round"/>
  <path d="M176.017 90.214c.146.874.26 1.678.369 2.383 1.264 8.167-1.442 13.59-3.231 17.349 4.804-3.384 8.043-9.82 9.678-14.727-1.974-1.575-4.67-3.413-6.816-5.005zM108.134 86.658c-3.36.683-8.883 2.35-12.864 5.093 2.78 1.509 16.549 9.721 27.801 14.647.088-.051.706-1.077 1.015-1.477-6.228-4.918-12.778-11.928-15.952-18.263z" fill="currentColor"/>
  <path d="M117.198 53.994s-7.642 2.063-4.549 8.562c2.15 4.512 6.231 2.908 8.665 1.54M119.236 55.229l2.401-.802c1.584.953 6.815 7.426 8.501 10.633 0 0 7.679-4.96 19.666-8.133 0 0 6.526-1.485 9.364-1.366-.824-6.563-2.508-14.947-5.474-22.443-4.411-11.142-18.06-6.82-20.041-6.153-21.287 7.213-14.437 28.216-14.437 28.216l.02.048z" stroke="currentColor" stroke-linecap="round" stroke-linejoin="round"/>
  <path d="M143.194 82.73c-2.562 0-4.998-.424-6.915-1.178-6.219-2.447-7.541-4.024-9.773-7.745-2.233-3.72-9.228-17.922-9.228-17.922l4.359-1.458c1.584.953 6.815 7.426 8.501 10.634 0 0 7.679-4.962 19.666-8.134 0 0 6.59-1.502 9.409-1.366 0 0 1.347 6.673.54 13.216" stroke="currentColor" stroke-linecap="round" stroke-linejoin="round"/>
  <path d="M117.813 57.74s-3.937-4.546-6.781-9.979c-2.677-5.106-1.567-11.433 2.871-15.125 3.714-3.099 7.25-2.279 7.25-2.279s-6.396-6.488-1.353-14.883a12.605 12.605 0 013.452-3.743 12.66 12.66 0 014.658-2.077c8.278-1.807 12.562 4.481 12.562 4.481S145.229-4.157 165.659.876c2.059.509 4.784 2.679 6.219 4.237 8.694 9.453-7.685 27.295-17.65 30.868-10.941 3.921-17.978 3.706-22.278 1.872 3.091.938 3.204 18.303-14.137 19.888z" fill="currentColor"/>
  <path d="M149.389 52.087l3.859 10.225-3.967-.02" stroke="currentColor" stroke-linecap="round" stroke-linejoin="round"/>
  <path d="M147.27 71.174c1.077 0 1.95-.87 1.95-1.942a1.946 1.946 0 00-1.95-1.942c-1.077 0-1.951.87-1.951 1.942 0 1.073.874 1.942 1.951 1.942zM153.953 52.932c.599-.149.896-1.017.664-1.939-.231-.922-.904-1.548-1.502-1.4-.598.15-.895 1.018-.664 1.94.232.922.904 1.548 1.502 1.4zM143.482 55.347c.598-.149.895-1.017.663-1.94-.231-.921-.904-1.548-1.502-1.399-.598.15-.895 1.017-.664 1.94.232.921.904 1.548 1.503 1.399z" fill="currentColor"/>
  <path d="M136.227 47.162a5.097 5.097 0 011.706-2.083c.746-.53 1.62-.85 2.533-.93M150.367 41.498s2.809-1.524 4.174.734" stroke="currentColor" stroke-linecap="round" stroke-linejoin="round"/>
  <path class="svg-fill-accent-first" d="M272.211 115.448h-80.066a2.273 2.273 0 00-1.404.487c-.4.316-.682.756-.799 1.25l-11.133 46.929h-29.021s-1.609 8.273 7.769 8.273h102.222c.51 0 1.005-.172 1.405-.487.4-.316.681-.756.798-1.25l12.437-52.427a2.261 2.261 0 00-.429-1.92 2.267 2.267 0 00-1.779-.855z" fill="#81B4FF"/>
  <path class="svg-fill-accent-first" d="M240.449 42.302h-.631c-.568 0-1.029.459-1.029 1.025v1.618c0 .567.461 1.026 1.029 1.026h.631c.568 0 1.029-.46 1.029-1.026v-1.618c0-.566-.461-1.025-1.029-1.025z" fill="#9CCEFF"/>
  <path class="svg-fill-accent-last" d="M236.726 42.302h-16.434c-.568 0-1.029.459-1.029 1.025v1.618c0 .567.461 1.026 1.029 1.026h16.434c.568 0 1.029-.46 1.029-1.026v-1.618c0-.566-.461-1.025-1.029-1.025zM238.4 59.345h-18.108c-.569 0-1.03.459-1.03 1.025v1.618c0 .566.461 1.026 1.03 1.026H238.4c.568 0 1.029-.46 1.029-1.026V60.37c0-.566-.461-1.025-1.029-1.025z" fill="#FFC1EE"/>
  <path class="svg-fill-accent-first" d="M254.61 53.67h-29.219c-.569 0-1.03.459-1.03 1.025v1.618c0 .567.461 1.026 1.03 1.026h29.219c.569 0 1.03-.46 1.03-1.026v-1.618c0-.566-.461-1.025-1.03-1.025zM273.255 53.67H258.42c-.569 0-1.03.459-1.03 1.025v1.618c0 .567.461 1.026 1.03 1.026h14.835c.569 0 1.03-.46 1.03-1.026v-1.618c0-.566-.461-1.025-1.03-1.025z" fill="#9CCEFF"/>
  <path class="svg-fill-accent-last" d="M278.974 47.997h-.63c-.569 0-1.03.46-1.03 1.026v1.618c0 .566.461 1.025 1.03 1.025h.63c.569 0 1.03-.46 1.03-1.025v-1.618c0-.567-.461-1.026-1.03-1.026zM250.576 47.987h-30.284c-.569 0-1.03.459-1.03 1.025v1.618c0 .567.461 1.026 1.03 1.026h30.284c.569 0 1.03-.46 1.03-1.026v-1.618c0-.566-.461-1.025-1.03-1.025zM260.127 42.302h-16.433c-.569 0-1.03.459-1.03 1.025v1.618c0 .567.461 1.026 1.03 1.026h16.433c.569 0 1.03-.46 1.03-1.026v-1.618c0-.566-.461-1.025-1.03-1.025z" fill="#FFC1EE"/>
  <path class="svg-fill-accent-first" d="M274.839 47.974h-20.756c-.569 0-1.03.46-1.03 1.026v1.64c0 .567.461 1.026 1.03 1.026h20.756c.568 0 1.029-.459 1.029-1.025V49c0-.566-.461-1.026-1.029-1.026z" fill="#9CCEFF"/>
  <path class="svg-fill-accent-last" d="M236.725 79.088h-16.433c-.569 0-1.03.46-1.03 1.026v1.618c0 .566.461 1.025 1.03 1.025h16.433c.569 0 1.03-.459 1.03-1.025v-1.618c0-.566-.461-1.026-1.03-1.026zM238.4 96.131h-18.108c-.569 0-1.03.46-1.03 1.026v1.618c0 .566.461 1.025 1.03 1.025H238.4c.568 0 1.029-.459 1.029-1.025v-1.618c0-.567-.461-1.026-1.029-1.026z" fill="#FFC1EE"/>
  <path class="svg-fill-accent-first" d="M254.61 90.459h-29.219c-.569 0-1.03.459-1.03 1.025v1.618c0 .566.461 1.025 1.03 1.025h29.219c.569 0 1.03-.459 1.03-1.025v-1.618c0-.566-.461-1.025-1.03-1.025zM273.255 90.459H258.42c-.569 0-1.03.459-1.03 1.025v1.618c0 .566.461 1.025 1.03 1.025h14.835c.569 0 1.03-.459 1.03-1.025v-1.618c0-.566-.461-1.025-1.03-1.025z" fill="#9CCEFF"/>
  <path class="svg-fill-accent-last" d="M278.974 84.784h-.63c-.569 0-1.03.459-1.03 1.025v1.618c0 .567.461 1.026 1.03 1.026h.63c.569 0 1.03-.46 1.03-1.026V85.81c0-.566-.461-1.025-1.03-1.025zM283.677 79.088h-.63c-.569 0-1.03.46-1.03 1.026v1.618c0 .566.461 1.025 1.03 1.025h.63c.569 0 1.03-.459 1.03-1.025v-1.618c0-.566-.461-1.026-1.03-1.026zM250.576 84.773h-30.284c-.569 0-1.03.46-1.03 1.026v1.618c0 .566.461 1.025 1.03 1.025h30.284c.569 0 1.03-.459 1.03-1.025v-1.618c0-.567-.461-1.026-1.03-1.026z" fill="#FFC1EE"/>
  <path class="svg-fill-accent-first" d="M260.127 79.088h-20.309c-.568 0-1.029.46-1.029 1.026v1.618c0 .566.461 1.025 1.029 1.025h20.309c.569 0 1.03-.459 1.03-1.025v-1.618c0-.566-.461-1.026-1.03-1.026zM280.045 79.088h-16.434c-.568 0-1.029.46-1.029 1.026v1.618c0 .566.461 1.025 1.029 1.025h16.434c.568 0 1.029-.459 1.029-1.025v-1.618c0-.566-.461-1.026-1.029-1.026zM240.449 73.59h-.631c-.568 0-1.029.46-1.029 1.025v1.619c0 .566.461 1.025 1.029 1.025h.631c.568 0 1.029-.46 1.029-1.025v-1.618c0-.567-.461-1.026-1.029-1.026z" fill="#9CCEFF"/>
  <path class="svg-fill-accent-last" d="M236.726 73.59h-16.434c-.568 0-1.029.46-1.029 1.025v1.619c0 .566.461 1.025 1.029 1.025h16.434c.568 0 1.029-.46 1.029-1.025v-1.618c0-.567-.461-1.026-1.029-1.026zM260.127 73.59h-16.433c-.569 0-1.03.46-1.03 1.025v1.619c0 .566.461 1.025 1.03 1.025h16.433c.569 0 1.03-.46 1.03-1.025v-1.618c0-.567-.461-1.026-1.03-1.026z" fill="#FFC1EE"/>
  <path class="svg-fill-accent-first" d="M274.839 84.763h-20.756c-.569 0-1.03.46-1.03 1.026v1.64c0 .567.461 1.026 1.03 1.026h20.756c.568 0 1.029-.46 1.029-1.026v-1.64c0-.567-.461-1.026-1.029-1.026z" fill="#9CCEFF"/>
  <path class="svg-stroke-accent-last" d="M43.877 161.203a5.387 5.387 0 01-3.902-1.284 5.341 5.341 0 01-1.847-3.655 5.33 5.33 0 011.29-3.886 5.379 5.379 0 014.644-1.823" stroke="#FFC1EE" stroke-linecap="round" stroke-linejoin="round"/>
  <path class="svg-fill-accent-last" d="M43.178 148.634v17.598a6.14 6.14 0 001.81 4.351 6.19 6.19 0 004.368 1.802h10.422a6.19 6.19 0 004.369-1.802 6.141 6.141 0 001.81-4.351v-17.598H43.177zm9.216 12.885a.412.412 0 01-.206.771.412.412 0 01-.206-.051l-4.119-2.461a.415.415 0 01-.236-.371.41.41 0 01.236-.371l4.119-2.461a.417.417 0 01.497.068.41.41 0 01.12.29.413.413 0 01-.205.361l-3.544 2.117 3.544 2.108zm8.686-1.743l-4.119 2.461a.411.411 0 01-.206.051.394.394 0 01-.292-.121.389.389 0 01-.122-.291.406.406 0 01.206-.361l3.544-2.114-3.544-2.117a.409.409 0 01-.206-.361.409.409 0 01.412-.41.422.422 0 01.206.051l4.119 2.461a.41.41 0 010 .743l.002.008z" fill="#FFC1EE"/>
  <path class="svg-stroke-accent-first" d="M81.385 141.542l-2.816-5.089M75.135 142.085h15.603" stroke="#9CCEFF" stroke-linecap="round" stroke-linejoin="round"/>
  <path class="svg-fill-accent-first" d="M88.578 158.656a1.22 1.22 0 00-1.535-.156 1.21 1.21 0 00-.452 1.469 1.216 1.216 0 002.25-.923 1.166 1.166 0 00-.263-.39zM87.72 156.86a1.21 1.21 0 001.194-.963 1.2 1.2 0 00-.718-1.352 1.207 1.207 0 00-.814-.042 1.205 1.205 0 00-.856 1.269c.027.278.15.538.348.735a1.167 1.167 0 00.847.353zM88.577 164.212a1.207 1.207 0 00-.499-2.016 1.218 1.218 0 00-1.427.584 1.206 1.206 0 00.299 1.507c.217.178.49.275.77.276a1.175 1.175 0 00.857-.351z" fill="#9CCEFF"/>
  <path class="svg-fill-accent-first" d="M92.272 145.797l-2.737-3.546H76.337l-2.737 3.546a1.872 1.872 0 00-.412 1.151v21.587a2.01 2.01 0 001.021 1.692c.847.525 1.926 1.337 2.002 2.115h13.45c.073-.778 1.153-1.59 1.999-2.115a2.019 2.019 0 001.015-1.696v-21.583a1.883 1.883 0 00-.403-1.151zm-5.73 4.141l1.442-2.396a.248.248 0 01.206-.133.26.26 0 01.127.037.26.26 0 01.091.096l1.442 2.396a.234.234 0 01.03.121.228.228 0 01-.07.168.227.227 0 01-.077.053.229.229 0 01-.212-.016.242.242 0 01-.087-.088l-1.236-2.051-1.235 2.051a.252.252 0 01-.206.123.229.229 0 01-.093-.019.227.227 0 01-.078-.053.233.233 0 01-.072-.168.236.236 0 01.029-.121zm.095.902a.246.246 0 01.235-.027c.03.013.056.031.078.054a.225.225 0 01.07.17.206.206 0 01-.063.158l-.091.088a1.173 1.173 0 00-.354.851 1.05 1.05 0 00.315.798.321.321 0 00.206.072.207.207 0 00.194-.148l.491-1.48c.045-.141.118-.271.217-.382a.674.674 0 01.51-.205.73.73 0 01.523.221 1.529 1.529 0 01.443 1.133 1.663 1.663 0 01-.607 1.294.188.188 0 01-.067.036.193.193 0 01-.075.009.245.245 0 01-.171-.07.235.235 0 01-.07-.17.201.201 0 01.063-.16l.091-.088a1.164 1.164 0 00.352-.851 1.048 1.048 0 00-.313-.798.322.322 0 00-.206-.072.21.21 0 00-.12.042.208.208 0 00-.073.106l-.495 1.48a1.06 1.06 0 01-.206.382.688.688 0 01-.51.205.73.73 0 01-.523-.222 1.514 1.514 0 01-.443-1.132 1.664 1.664 0 01.6-1.294zm-.113 3.624a1.696 1.696 0 012.822.7 1.681 1.681 0 01-.821 1.979 1.697 1.697 0 01-2.11-.416 1.685 1.685 0 01-.385-1.071 1.616 1.616 0 01.494-1.192zm-.424 10.511a.242.242 0 01.17-.41h.266a1.687 1.687 0 01-.23-2.133 1.7 1.7 0 012.908.126 1.682 1.682 0 01-.416 2.105 1.704 1.704 0 01-1.078.384H86.28a.232.232 0 01-.18-.072zm3.766.913l-1.441 2.395a.253.253 0 01-.219.133.247.247 0 01-.206-.133l-1.441-2.395a.237.237 0 01-.03-.121.23.23 0 01.071-.169.229.229 0 01.17-.071.246.246 0 01.206.123l1.237 2.05 1.235-2.05a.244.244 0 01.206-.123.243.243 0 01.241.24.237.237 0 01-.029.121zm.933-4.765a.229.229 0 01-.17.07H87.72a1.694 1.694 0 01-1.656-1.356 1.678 1.678 0 011.012-1.883 1.697 1.697 0 012.052.619 1.68 1.68 0 01-.209 2.126l-.012.012h1.721c.032 0 .064.006.093.018.03.013.056.031.078.054a.227.227 0 01.072.17.233.233 0 01-.072.17z" fill="#9CCEFF"/>
  <path d="M143.34 84.745c.085-2.652.044-6.826-.902-8.649-1.501-2.894-.101-5.982 2.97-2.822 1.75 1.8 2.609 4.19 3.025 5.91M169.267 80.49c2.965 0 5.368-2.395 5.368-5.347 0-2.953-2.403-5.347-5.368-5.347-2.965 0-5.369 2.394-5.369 5.346 0 2.953 2.404 5.347 5.369 5.347zM134.493 173c15.692-1.167 18.814-54.19 19.358-56.001 1.089-3.577-2.331-4.416-1.882-7.248.449-2.832.101-4.102.101-4.102-7.367-1.193-14.521-10.418-14.521-10.418s-.741.54-2.852 2.336c-2.11 1.796-4.466-.964-6.876 1.788-1.589 1.836-18.912 30.798-18.912 30.798" stroke="currentColor" stroke-linecap="round" stroke-linejoin="round"/>
  <path d="M152.605 109.667c.511-3.05.713-4.377.713-4.377-7.844-1.202-15.933-11.052-15.933-11.052s-.799.587-3.069 2.541c-.914.788-1.853.782-2.837.687-.694 8.554 14.713 16.169 22.012 16.528-.466-2.055-1.271-2.012-.886-4.327z" fill="currentColor"/>
  <path d="M98.711 125.295s9.288-7.982 14.679-2.954M134.329 101.671l15.56 9.009 7.788-18.339c7.515.012 7.482-4.052 5.908-4.192-1.573-.14-9.129.917-9.129.917s.245-.548 6.384-1.709c6.139-1.16 4.986-4.567 3.666-4.66-1.32-.091-11.075 2.343-11.075 2.343l8.381-2.98c2.984-.943 3.089-3.823 1.53-4.229-1.029-.269-6.519 1.385-10.865 2.898 0 0 5.223-2.666 7.7-4.278 2.478-1.612.746-3.714-.702-3.583-1.448.131-11.505 6.83-13.421 8.489-1.915 1.659-11.725 20.314-11.725 20.314zM124.197 150.672a5.382 5.382 0 015.122 1.495 5.346 5.346 0 011.463 4.306 5.33 5.33 0 01-2.393 3.871 5.392 5.392 0 01-4.519.638" stroke="currentColor" stroke-linecap="round" stroke-linejoin="round"/>
  <path d="M101.928 148.634v17.598c0 1.632.651 3.197 1.809 4.351a6.191 6.191 0 004.369 1.802h10.42c1.638 0 3.21-.648 4.368-1.802a6.14 6.14 0 001.81-4.351v-17.598h-22.776zm9.213 12.885a.406.406 0 01.206.361.41.41 0 01-.412.41.412.412 0 01-.206-.051l-4.118-2.461a.409.409 0 010-.742l4.118-2.461a.412.412 0 01.365-.02.413.413 0 01.049.741l-3.544 2.117 3.542 2.106zm5.149-6.066l-3.316 8.255a.438.438 0 01-.219.203.412.412 0 01-.572-.378.45.45 0 01.035-.174l3.316-8.255a.49.49 0 01.088-.119.399.399 0 01.291-.119.412.412 0 01.412.41.488.488 0 01-.033.185l-.002-.008zm5.611 4.315l-4.118 2.461a.412.412 0 01-.206.051.41.41 0 01-.412-.41.408.408 0 01.206-.361l3.542-2.114-3.542-2.117a.409.409 0 01-.206-.361.39.39 0 01.121-.291.416.416 0 01.499-.07l4.118 2.461a.41.41 0 010 .743l-.002.008z" fill="currentColor"/>
  <path d="M1 173h350" stroke="currentColor" stroke-linecap="round" stroke-linejoin="round"/>
  <path d="M169.191 85.526l-1.141-17.562-22.729 1.467.773 11.883c2.02-1.721 11.943-8.32 13.375-8.45 1.431-.13 3.179 1.973.702 3.583s-7.7 4.278-7.7 4.278c4.345-1.514 9.842-3.167 10.865-2.898 1.561.41 1.454 3.281-1.53 4.229l-8.381 2.98s9.755-2.434 11.075-2.342c1.32.092 2.471 3.499-3.666 4.66-6.137 1.16-6.384 1.708-6.384 1.708s7.558-1.058 9.129-.917c1.571.142 1.606 4.204-5.908 4.192l-.043.1 5.79-.373a6.19 6.19 0 004.247-2.077 6.153 6.153 0 001.209-2.08 6.153 6.153 0 00.317-2.381z" fill="currentColor"/>
</svg>