<svg viewBox="0 0 56 56" fill="none" xmlns="http://www.w3.org/2000/svg">
<rect width="56" height="56" rx="28" fill="url(#paint0_linear_1640_11406)"/>
<path d="M14.7647 27C14.2967 27 13.8478 27.1686 13.5169 27.4686C13.1859 27.7687 13 28.1757 13 28.6V41.4C13 41.8243 13.1859 42.2313 13.5169 42.5314C13.8478 42.8314 14.2967 43 14.7647 43C15.2327 43 15.6816 42.8314 16.0125 42.5314C16.3435 42.2313 16.5294 41.8243 16.5294 41.4V28.6C16.5294 28.1757 16.3435 27.7687 16.0125 27.4686C15.6816 27.1686 15.2327 27 14.7647 27ZM23.5882 11C23.1202 11 22.6713 11.1686 22.3404 11.4686C22.0095 11.7687 21.8235 12.1757 21.8235 12.6V41.4C21.8235 41.8243 22.0095 42.2313 22.3404 42.5314C22.6713 42.8314 23.1202 43 23.5882 43C24.0563 43 24.5051 42.8314 24.8361 42.5314C25.167 42.2313 25.3529 41.8243 25.3529 41.4V12.6C25.3529 12.1757 25.167 11.7687 24.8361 11.4686C24.5051 11.1686 24.0563 11 23.5882 11ZM41.2353 33.4C40.7673 33.4 40.3184 33.5686 39.9875 33.8686C39.6565 34.1687 39.4706 34.5757 39.4706 35V41.4C39.4706 41.8243 39.6565 42.2313 39.9875 42.5314C40.3184 42.8314 40.7673 43 41.2353 43C41.7033 43 42.1522 42.8314 42.4831 42.5314C42.8141 42.2313 43 41.8243 43 41.4V35C43 34.5757 42.8141 34.1687 42.4831 33.8686C42.1522 33.5686 41.7033 33.4 41.2353 33.4ZM32.4118 20.6C31.9437 20.6 31.4949 20.7686 31.1639 21.0686C30.833 21.3687 30.6471 21.7757 30.6471 22.2V41.4C30.6471 41.8243 30.833 42.2313 31.1639 42.5314C31.4949 42.8314 31.9437 43 32.4118 43C32.8798 43 33.3287 42.8314 33.6596 42.5314C33.9905 42.2313 34.1765 41.8243 34.1765 41.4V22.2C34.1765 21.7757 33.9905 21.3687 33.6596 21.0686C33.3287 20.7686 32.8798 20.6 32.4118 20.6Z" fill="white" stroke="white" stroke-width="2"/>
<defs>
<linearGradient id="paint0_linear_1640_11406" x1="65" y1="28" x2="-3.5" y2="28" gradientUnits="userSpaceOnUse">
<stop stop-color="#FF3384"/>
<stop offset="0.491005" stop-color="#A68CDE"/>
<stop offset="1" stop-color="#00EDE8"/>
</linearGradient>
</defs>
</svg>
