<svg viewBox="0 0 34 38" fill="none" xmlns="http://www.w3.org/2000/svg">
<path d="M19.2283 38C18.0755 38 17.2574 37.5132 16.7742 36.5397C16.2891 35.568 16.3693 34.6298 17.0149 33.725L27.7359 19L17.0149 4.275C16.3693 3.37024 16.2891 2.4311 16.7742 1.45757C17.2574 0.485858 18.0755 0 19.2283 0C19.7355 0 20.1966 0.123953 20.6116 0.371857C21.0266 0.621572 21.3725 0.927381 21.6491 1.28929L33.3385 17.4393C33.523 17.6655 33.6613 17.9143 33.7536 18.1857C33.8458 18.4571 33.8919 18.7286 33.8919 19C33.8919 19.2714 33.8458 19.5311 33.7536 19.779C33.6613 20.0287 33.523 20.2893 33.3385 20.5607L21.6491 36.7107C21.3725 37.0726 21.0266 37.3784 20.6116 37.6281C20.1966 37.876 19.7355 38 19.2283 38ZM2.76627 38C1.61347 38 0.795442 37.5132 0.312188 36.5397C-0.172911 35.568 -0.0926748 34.6298 0.552894 33.725L11.2739 19L0.552894 4.275C-0.0926748 3.37024 -0.172911 2.4311 0.312188 1.45757C0.795442 0.485858 1.61347 0 2.76627 0C3.2735 0 3.73462 0.123953 4.14963 0.371857C4.56464 0.621572 4.91048 0.927381 5.18715 1.28929L16.8766 17.4393C17.061 17.6655 17.1993 17.9143 17.2916 18.1857C17.3838 18.4571 17.4299 18.7286 17.4299 19C17.4299 19.2714 17.3838 19.5429 17.2916 19.8143C17.1993 20.0857 17.061 20.3345 16.8766 20.5607L5.18715 36.7107C4.91048 37.0726 4.56464 37.3784 4.14963 37.6281C3.73462 37.876 3.2735 38 2.76627 38Z" fill="white"/>
</svg>
