<svg width="48" height="48" viewBox="0 0 48 48" fill="none" xmlns="http://www.w3.org/2000/svg">
<path d="M24.0003 42.6667C28.951 42.6667 33.699 40.7 37.1997 37.1993C40.7003 33.6986 42.667 28.9507 42.667 24C42.667 19.0493 40.7003 14.3013 37.1997 10.8007C33.699 7.29998 28.951 5.33332 24.0003 5.33332C19.0496 5.33332 14.3017 7.29998 10.801 10.8007C7.30032 14.3013 5.33366 19.0493 5.33366 24C5.33366 28.9507 7.30032 33.6986 10.801 37.1993C14.3017 40.7 19.0496 42.6667 24.0003 42.6667ZM24.0003 47.3333C11.1133 47.3333 0.666992 36.887 0.666992 24C0.666992 11.113 11.1133 0.666656 24.0003 0.666656C36.8873 0.666656 47.3337 11.113 47.3337 24C47.3337 36.887 36.8873 47.3333 24.0003 47.3333Z" fill="black"/>
<path d="M24.0006 34.7707L19.705 21.55H28.2963L24.0006 34.7707ZM24.0006 34.7707L13.6826 21.55H19.7026L24.0006 34.7707ZM13.6826 21.55L24.0006 34.7707L12.7003 26.562C12.5481 26.4514 12.4349 26.2953 12.3771 26.1163C12.3192 25.9372 12.3196 25.7444 12.3783 25.5657L13.685 21.5477L13.6826 21.55ZM13.6826 21.55L16.2726 13.5863C16.3012 13.4968 16.3576 13.4186 16.4335 13.3632C16.5094 13.3077 16.601 13.2778 16.695 13.2778C16.789 13.2778 16.8806 13.3077 16.9565 13.3632C17.0324 13.4186 17.0887 13.4968 17.1173 13.5863L19.705 21.55H13.685H13.6826ZM24.0006 34.7707L28.2963 21.5477H34.3163L24.0006 34.7707ZM34.3186 21.5477L35.6253 25.5657C35.6835 25.7449 35.6832 25.938 35.6245 26.1171C35.5658 26.2962 35.4517 26.452 35.2986 26.562L24.0006 34.7707L34.3186 21.5477ZM34.3186 21.5477H28.2986L30.884 13.584C30.912 13.4936 30.9682 13.4145 31.0444 13.3583C31.1206 13.3021 31.2128 13.2718 31.3075 13.2718C31.4022 13.2718 31.4943 13.3021 31.5706 13.3583C31.6468 13.4145 31.703 13.4936 31.731 13.584L34.3186 21.5477Z" fill="black"/>
</svg>
