<svg viewBox="0 0 33 38" fill="none" xmlns="http://www.w3.org/2000/svg">
<path d="M14.2777 0C15.4002 0 16.1967 0.486763 16.6672 1.46029C17.1396 2.432 17.0615 3.37024 16.4329 4.275L5.99396 19L16.4329 33.725C17.0615 34.6298 17.1396 35.5689 16.6672 36.5424C16.1967 37.5141 15.4002 38 14.2777 38C13.7839 38 13.3349 37.876 12.9308 37.6281C12.5267 37.3784 12.19 37.0726 11.9206 36.7107L0.538784 20.5607C0.359192 20.3345 0.224499 20.0857 0.134701 19.8143C0.0449028 19.5429 0 19.2714 0 19C0 18.7286 0.0449028 18.4689 0.134701 18.221C0.224499 17.9713 0.359192 17.7107 0.538784 17.4393L11.9206 1.28929C12.19 0.927383 12.5267 0.621571 12.9308 0.371857C13.3349 0.123951 13.7839 0 14.2777 0ZM30.3065 0C31.429 0 32.2255 0.486763 32.696 1.46029C33.1684 2.432 33.0902 3.37024 32.4617 4.275L22.0227 19L32.4617 33.725C33.0902 34.6298 33.1684 35.5689 32.696 36.5424C32.2255 37.5141 31.429 38 30.3065 38C29.8126 38 29.3637 37.876 28.9596 37.6281C28.5555 37.3784 28.2187 37.0726 27.9494 36.7107L16.5676 20.5607C16.388 20.3345 16.2533 20.0857 16.1635 19.8143C16.0737 19.5429 16.0288 19.2714 16.0288 19C16.0288 18.7286 16.0737 18.4571 16.1635 18.1857C16.2533 17.9143 16.388 17.6655 16.5676 17.4393L27.9494 1.28929C28.2187 0.927383 28.5555 0.621571 28.9596 0.371857C29.3637 0.123951 29.8126 0 30.3065 0Z" fill="white"/>
</svg>
