<svg  viewBox="0 0 56 56" fill="none" xmlns="http://www.w3.org/2000/svg">
<g clip-path="url(#clip0_1640_11283)">
<path d="M11.2 48.5333V50.4H14.9333V48.5333H11.2ZM41.0667 48.5333V50.4H44.8V48.5333H41.0667ZM14.9333 48.5333V46.6667H11.2V48.5333H14.9333ZM24.2667 37.3333H31.7333V33.6H24.2667V37.3333ZM41.0667 46.6667V48.5333H44.8V46.6667H41.0667ZM31.7333 37.3333C34.2087 37.3333 36.5827 38.3167 38.333 40.067C40.0833 41.8173 41.0667 44.1913 41.0667 46.6667H44.8C44.8 43.2012 43.4233 39.8776 40.9729 37.4271C38.5224 34.9767 35.1988 33.6 31.7333 33.6V37.3333ZM14.9333 46.6667C14.9333 44.1913 15.9167 41.8173 17.667 40.067C19.4173 38.3167 21.7913 37.3333 24.2667 37.3333V33.6C20.8012 33.6 17.4776 34.9767 15.0271 37.4271C12.5767 39.8776 11.2 43.2012 11.2 46.6667H14.9333ZM28 11.2C25.5246 11.2 23.1507 12.1833 21.4003 13.9337C19.65 15.684 18.6667 18.058 18.6667 20.5333H22.4C22.4 19.0481 22.99 17.6237 24.0402 16.5735C25.0904 15.5233 26.5148 14.9333 28 14.9333V11.2ZM37.3333 20.5333C37.3333 18.058 36.35 15.684 34.5997 13.9337C32.8493 12.1833 30.4754 11.2 28 11.2V14.9333C29.4852 14.9333 30.9096 15.5233 31.9598 16.5735C33.01 17.6237 33.6 19.0481 33.6 20.5333H37.3333ZM28 29.8667C30.4754 29.8667 32.8493 28.8833 34.5997 27.133C36.35 25.3827 37.3333 23.0087 37.3333 20.5333H33.6C33.6 22.0185 33.01 23.4429 31.9598 24.4931C30.9096 25.5433 29.4852 26.1333 28 26.1333V29.8667ZM28 26.1333C26.5148 26.1333 25.0904 25.5433 24.0402 24.4931C22.99 23.4429 22.4 22.0185 22.4 20.5333H18.6667C18.6667 23.0087 19.65 25.3827 21.4003 27.133C23.1507 28.8833 25.5246 29.8667 28 29.8667V26.1333ZM28 52.2667C21.5641 52.2667 15.3918 49.71 10.8409 45.1591C6.28999 40.6082 3.73333 34.4359 3.73333 28H0C0 35.4261 2.94999 42.548 8.20101 47.799C13.452 53.05 20.5739 56 28 56V52.2667ZM52.2667 28C52.2667 31.1867 51.639 34.3423 50.4195 37.2865C49.2 40.2306 47.4125 42.9058 45.1591 45.1591C42.9058 47.4125 40.2306 49.2 37.2865 50.4195C34.3423 51.639 31.1867 52.2667 28 52.2667V56C35.4261 56 42.548 53.05 47.799 47.799C53.05 42.548 56 35.4261 56 28H52.2667ZM28 3.73333C31.1867 3.73333 34.3423 4.36101 37.2865 5.58052C40.2306 6.80004 42.9058 8.58751 45.1591 10.8409C47.4125 13.0942 49.2 15.7694 50.4195 18.7135C51.639 21.6577 52.2667 24.8133 52.2667 28H56C56 20.5739 53.05 13.452 47.799 8.20101C42.548 2.94999 35.4261 0 28 0V3.73333ZM28 0C20.5739 0 13.452 2.94999 8.20101 8.20101C2.94999 13.452 0 20.5739 0 28H3.73333C3.73333 21.5641 6.28999 15.3918 10.8409 10.8409C15.3918 6.28999 21.5641 3.73333 28 3.73333V0Z" fill="url(#paint0_linear_1640_11283)"/>
</g>
<defs>
<linearGradient id="paint0_linear_1640_11283" x1="65" y1="28" x2="-3.5" y2="28" gradientUnits="userSpaceOnUse">
<stop stop-color="#FF3384"/>
<stop offset="0.491005" stop-color="#A68CDE"/>
<stop offset="1" stop-color="#00EDE8"/>
</linearGradient>
<clipPath id="clip0_1640_11283">
<rect width="56" height="56" fill="white"/>
</clipPath>
</defs>
</svg>
