<svg viewBox="0 0 20 20" fill="none" xmlns="http://www.w3.org/2000/svg">
<g clip-path="url(#clip0_3696_19216)">
<path d="M10 1.875C7.83 1.875 5.78875 2.72 4.255 4.255C2.72125 5.79 1.875 7.83 1.875 10C1.875 12.17 2.72 14.2112 4.255 15.745C5.79 17.2787 7.83 18.125 10 18.125C12.17 18.125 14.2112 17.28 15.745 15.745C17.2787 14.21 18.125 12.17 18.125 10C18.125 7.83 17.28 5.78875 15.745 4.255C14.21 2.72125 12.17 1.875 10 1.875ZM10 0C12.6522 0 15.1957 1.05357 17.0711 2.92893C18.9464 4.8043 20 7.34784 20 10C20 12.6522 18.9464 15.1957 17.0711 17.0711C15.1957 18.9464 12.6522 20 10 20C7.34784 20 4.8043 18.9464 2.92893 17.0711C1.05357 15.1957 0 12.6522 0 10C0 7.34784 1.05357 4.8043 2.92893 2.92893C4.8043 1.05357 7.34784 0 10 0ZM8.75 13.75H11.25V16.25H8.75V13.75ZM8.75 3.75H11.25V11.25H8.75V3.75Z" fill="currentColor"/>
</g>
<defs>
<clipPath id="clip0_3696_19216">
<rect width="20" height="20" fill="black"/>
</clipPath>
</defs>
</svg>
