<svg width="40" height="40" viewBox="0 0 40 40" fill="none" xmlns="http://www.w3.org/2000/svg">
<g clip-path="url(#clip0_5428_7929)">
<path d="M40 20C40 31.0457 31.0457 40 20 40C8.95431 40 0 31.0457 0 20C0 8.95431 8.95431 0 20 0C31.0457 0 40 8.95431 40 20Z" fill="url(#paint0_linear_5428_7929)"/>
<path d="M10.7109 10.857C10.7109 10.2508 10.9518 9.66941 11.3804 9.24076C11.8091 8.8121 12.3904 8.57129 12.9967 8.57129H22.1395C22.4426 8.57135 22.7332 8.6918 22.9475 8.90615L28.6618 14.6204C28.8761 14.8347 28.9966 15.1254 28.9967 15.4284V29.1427C28.9967 29.7489 28.7558 30.3303 28.3272 30.759C27.8985 31.1876 27.3171 31.4284 26.7109 31.4284H12.9967C12.3904 31.4284 11.8091 31.1876 11.3804 30.759C10.9518 30.3303 10.7109 29.7489 10.7109 29.1427V10.857ZM26.2378 15.4284L22.1395 11.3301V15.4284H26.2378ZM19.8538 10.857H12.9967V29.1427H26.7109V17.7141H20.9967C20.6935 17.7141 20.4029 17.5937 20.1885 17.3794C19.9742 17.1651 19.8538 16.8744 19.8538 16.5713V10.857ZM15.2824 21.1427C15.2824 20.8396 15.4028 20.5489 15.6171 20.3346C15.8314 20.1203 16.1221 19.9999 16.4252 19.9999H23.2824C23.5855 19.9999 23.8762 20.1203 24.0905 20.3346C24.3048 20.5489 24.4252 20.8396 24.4252 21.1427C24.4252 21.4458 24.3048 21.7365 24.0905 21.9508C23.8762 22.1652 23.5855 22.2856 23.2824 22.2856H16.4252C16.1221 22.2856 15.8314 22.1652 15.6171 21.9508C15.4028 21.7365 15.2824 21.4458 15.2824 21.1427ZM15.2824 25.7141C15.2824 25.411 15.4028 25.1204 15.6171 24.906C15.8314 24.6917 16.1221 24.5713 16.4252 24.5713H23.2824C23.5855 24.5713 23.8762 24.6917 24.0905 24.906C24.3048 25.1204 24.4252 25.411 24.4252 25.7141C24.4252 26.0173 24.3048 26.3079 24.0905 26.5223C23.8762 26.7366 23.5855 26.857 23.2824 26.857H16.4252C16.1221 26.857 15.8314 26.7366 15.6171 26.5223C15.4028 26.3079 15.2824 26.0173 15.2824 25.7141Z" fill="white"/>
</g>
<defs>
<linearGradient id="paint0_linear_5428_7929" x1="46.4286" y1="20" x2="-2.5" y2="20" gradientUnits="userSpaceOnUse">
<stop stop-color="#FF3384"/>
<stop offset="0.491005" stop-color="#A68CDE"/>
<stop offset="1" stop-color="#00EDE8"/>
</linearGradient>
<clipPath id="clip0_5428_7929">
<rect width="40" height="40" fill="white"/>
</clipPath>
</defs>
</svg>
