<svg viewBox="0 0 56 56" fill="none" xmlns="http://www.w3.org/2000/svg">
<g clip-path="url(#clip0_1640_11388)">
<path d="M28 0C12.561 0 0 12.561 0 28C0 43.439 12.561 56 28 56C43.439 56 56 43.439 56 28C56 12.561 43.439 0 28 0ZM16.1538 40.6538C15.5149 40.6538 14.8902 40.4644 14.3589 40.1094C13.8276 39.7544 13.4135 39.2498 13.169 38.6594C12.9245 38.0691 12.8605 37.4195 12.9852 36.7928C13.1098 36.1661 13.4175 35.5904 13.8693 35.1386C14.3212 34.6867 14.8968 34.379 15.5236 34.2544C16.1503 34.1297 16.7999 34.1937 17.3902 34.4382C17.9806 34.6828 18.4851 35.0969 18.8401 35.6282C19.1951 36.1595 19.3846 36.7841 19.3846 37.4231C19.3846 38.2799 19.0442 39.1017 18.4383 39.7076C17.8325 40.3135 17.0107 40.6538 16.1538 40.6538ZM16.1538 31.0962C15.5149 31.0962 14.8902 30.9067 14.3589 30.5517C13.8276 30.1967 13.4135 29.6921 13.169 29.1017C12.9245 28.5114 12.8605 27.8618 12.9852 27.2351C13.1098 26.6084 13.4175 26.0327 13.8693 25.5809C14.3212 25.1291 14.8968 24.8214 15.5236 24.6967C16.1503 24.572 16.7999 24.636 17.3902 24.8805C17.9806 25.1251 18.4851 25.5392 18.8401 26.0705C19.1951 26.6018 19.3846 27.2264 19.3846 27.8654C19.3846 28.7222 19.0442 29.544 18.4383 30.1499C17.8325 30.7558 17.0107 31.0962 16.1538 31.0962ZM16.1538 21.2692C15.5149 21.2692 14.8902 21.0798 14.3589 20.7248C13.8276 20.3697 13.4135 19.8652 13.169 19.2748C12.9245 18.6845 12.8605 18.0349 12.9852 17.4082C13.1098 16.7815 13.4175 16.2058 13.8693 15.754C14.3212 15.3021 14.8968 14.9944 15.5236 14.8698C16.1503 14.7451 16.7999 14.8091 17.3902 15.0536C17.9806 15.2982 18.4851 15.7122 18.8401 16.2435C19.1951 16.7748 19.3846 17.3995 19.3846 18.0385C19.3846 18.8953 19.0442 19.7171 18.4383 20.323C17.8325 20.9288 17.0107 21.2692 16.1538 21.2692ZM40.9231 39.4423H23.6923C23.1211 39.4423 22.5732 39.2154 22.1693 38.8115C21.7654 38.4075 21.5385 37.8597 21.5385 37.2885C21.5385 36.7172 21.7654 36.1694 22.1693 35.7655C22.5732 35.3615 23.1211 35.1346 23.6923 35.1346H40.9231C41.4943 35.1346 42.0422 35.3615 42.4461 35.7655C42.85 36.1694 43.0769 36.7172 43.0769 37.2885C43.0769 37.8597 42.85 38.4075 42.4461 38.8115C42.0422 39.2154 41.4943 39.4423 40.9231 39.4423ZM40.9231 29.8846H23.6923C23.1211 29.8846 22.5732 29.6577 22.1693 29.2538C21.7654 28.8498 21.5385 28.302 21.5385 27.7308C21.5385 27.1595 21.7654 26.6117 22.1693 26.2078C22.5732 25.8038 23.1211 25.5769 23.6923 25.5769H40.9231C41.4943 25.5769 42.0422 25.8038 42.4461 26.2078C42.85 26.6117 43.0769 27.1595 43.0769 27.7308C43.0769 28.302 42.85 28.8498 42.4461 29.2538C42.0422 29.6577 41.4943 29.8846 40.9231 29.8846ZM40.9231 20.1923H23.6923C23.1211 20.1923 22.5732 19.9654 22.1693 19.5615C21.7654 19.1575 21.5385 18.6097 21.5385 18.0385C21.5385 17.4672 21.7654 16.9194 22.1693 16.5155C22.5732 16.1115 23.1211 15.8846 23.6923 15.8846H40.9231C41.4943 15.8846 42.0422 16.1115 42.4461 16.5155C42.85 16.9194 43.0769 17.4672 43.0769 18.0385C43.0769 18.6097 42.85 19.1575 42.4461 19.5615C42.0422 19.9654 41.4943 20.1923 40.9231 20.1923Z" fill="url(#paint0_linear_1640_11388)"/>
</g>
<defs>
<linearGradient id="paint0_linear_1640_11388" x1="65" y1="28" x2="-3.5" y2="28" gradientUnits="userSpaceOnUse">
<stop stop-color="#FF3384"/>
<stop offset="0.491005" stop-color="#A68CDE"/>
<stop offset="1" stop-color="#00EDE8"/>
</linearGradient>
<clipPath id="clip0_1640_11388">
<rect width="56" height="56" fill="white"/>
</clipPath>
</defs>
</svg>
