<svg viewBox="0 0 24 24" fill="none" xmlns="http://www.w3.org/2000/svg">
<path d="M17.0556 2.544C17.0684 2.50439 17.0932 2.46975 17.1265 2.44489C17.1599 2.42003 17.2002 2.4062 17.2418 2.40532C17.2834 2.40444 17.3242 2.41655 17.3586 2.43998C17.393 2.4634 17.4192 2.49696 17.4336 2.536L20.5476 10.846L21.9456 14.576C21.961 14.617 21.9624 14.6619 21.9498 14.7038C21.9371 14.7457 21.9111 14.7823 21.8756 14.808L12.1156 21.914C12.0815 21.9388 12.0404 21.9522 11.9981 21.9522C11.9559 21.9522 11.9148 21.9388 11.8806 21.914L2.12065 14.808C2.08559 14.7822 2.05988 14.7457 2.04743 14.7041C2.03498 14.6624 2.03646 14.6178 2.05165 14.577L3.44965 10.847L3.61665 10.397L6.56065 2.536C6.57506 2.49696 6.60129 2.4634 6.63567 2.43998C6.67006 2.41655 6.7109 2.40444 6.7525 2.40532C6.7941 2.4062 6.83438 2.42003 6.86775 2.44489C6.90112 2.46975 6.9259 2.50439 6.93865 2.544L9.40865 10.144C9.42189 10.1839 9.44738 10.2186 9.48149 10.2432C9.5156 10.2678 9.5566 10.281 9.59865 10.281H14.3986C14.4408 10.281 14.4819 10.2676 14.516 10.2428C14.5502 10.218 14.5756 10.1831 14.5886 10.143L17.0556 2.544Z" stroke="url(#paint0_linear_3696_18865)" stroke-width="1.5"/>
<defs>
<linearGradient id="paint0_linear_3696_18865" x1="25.1596" y1="12.1787" x2="0.794109" y2="12.1787" gradientUnits="userSpaceOnUse">
<stop stop-color="#FF3384"/>
<stop offset="0.491005" stop-color="#A68CDE"/>
<stop offset="1" stop-color="#00EDE8"/>
</linearGradient>
</defs>
</svg>
