<svg width="40" height="40" viewBox="0 0 40 40" fill="none" xmlns="http://www.w3.org/2000/svg">
<g clip-path="url(#clip0_5428_7937)">
<path fill-rule="evenodd" clip-rule="evenodd" d="M37 20C37 29.3888 29.3888 37 20 37C10.6112 37 3 29.3888 3 20C3 10.6112 10.6112 3 20 3C29.3888 3 37 10.6112 37 20ZM40 20C40 31.0457 31.0457 40 20 40C8.9543 40 0 31.0457 0 20C0 8.9543 8.9543 0 20 0C31.0457 0 40 8.9543 40 20ZM11.6695 9.66947C11.2408 10.0981 11 10.6795 11 11.2857V29.5714C11 30.1776 11.2408 30.759 11.6695 31.1877C12.0981 31.6163 12.6795 31.8571 13.2857 31.8571H27C27.6062 31.8571 28.1876 31.6163 28.6162 31.1877C29.0449 30.759 29.2857 30.1776 29.2857 29.5714V15.8571C29.2856 15.5541 29.1652 15.2634 28.9509 15.0491L23.2366 9.33486C23.0223 9.12051 22.7317 9.00006 22.4286 9H13.2857C12.6795 9 12.0981 9.24082 11.6695 9.66947ZM22.4286 11.7589L26.5269 15.8571H22.4286V11.7589ZM13.2857 11.2857H20.1429V17C20.1429 17.3031 20.2633 17.5938 20.4776 17.8081C20.6919 18.0224 20.9826 18.1429 21.2857 18.1429H27V29.5714H13.2857V11.2857ZM15.9062 20.7633C15.6918 20.9776 15.5714 21.2683 15.5714 21.5714C15.5714 21.8745 15.6918 22.1652 15.9062 22.3796C16.1205 22.5939 16.4112 22.7143 16.7143 22.7143H23.5714C23.8745 22.7143 24.1652 22.5939 24.3795 22.3796C24.5939 22.1652 24.7143 21.8745 24.7143 21.5714C24.7143 21.2683 24.5939 20.9776 24.3795 20.7633C24.1652 20.549 23.8745 20.4286 23.5714 20.4286H16.7143C16.4112 20.4286 16.1205 20.549 15.9062 20.7633ZM15.9062 25.3347C15.6918 25.5491 15.5714 25.8398 15.5714 26.1429C15.5714 26.446 15.6918 26.7367 15.9062 26.951C16.1205 27.1653 16.4112 27.2857 16.7143 27.2857H23.5714C23.8745 27.2857 24.1652 27.1653 24.3795 26.951C24.5939 26.7367 24.7143 26.446 24.7143 26.1429C24.7143 25.8398 24.5939 25.5491 24.3795 25.3347C24.1652 25.1204 23.8745 25 23.5714 25H16.7143C16.4112 25 16.1205 25.1204 15.9062 25.3347Z" fill="url(#paint0_linear_5428_7937)"/>
</g>
<defs>
<linearGradient id="paint0_linear_5428_7937" x1="46.4286" y1="20" x2="-2.5" y2="20" gradientUnits="userSpaceOnUse">
<stop stop-color="#FF3384"/>
<stop offset="0.491005" stop-color="#A68CDE"/>
<stop offset="1" stop-color="#00EDE8"/>
</linearGradient>
<clipPath id="clip0_5428_7937">
<rect width="40" height="40" fill="white"/>
</clipPath>
</defs>
</svg>
