<svg xmlns="http://www.w3.org/2000/svg" width="118" height="118" fill="none"><g fill="#000001" clip-path="url(#a)"><path d="M112.396 5.639v5.605H95.544v5.605h-5.642v5.642h-5.605v11.246h5.605V50.59h5.642V33.737h5.605v-5.642h11.247v-5.604h5.605V5.639zM112.396 73.05h-5.642v22.495h5.642zM106.752 95.543h-5.605v5.605h5.605zM106.752 61.8h-5.605v11.248h5.605z"/><path d="M101.149 101.146h-5.605v5.642h5.605zM101.149 50.596h-5.605v11.21h5.605zM112.395 0H89.901v5.642h22.494zM95.544 106.793H84.297v5.605h11.247zM95.542 73.05H78.69v5.643h16.852z"/><path d="M89.902 5.639h-5.605v5.605h5.605zM89.9 84.293H78.69v5.605H89.9zM84.295 56.2H78.69v5.604h5.605zM84.295 11.25H78.69v5.605h5.605zM84.298 112.396H33.742v5.605h50.556zM78.69 16.854h-5.642v16.888h5.642zM50.591 67.441v5.605h5.605v5.642h5.605v-5.642h5.642v-5.605z"/><path d="M73.05 33.742H44.953v5.605h28.099zM44.95 16.854h-5.605v16.888h5.605zM39.347 56.2h-5.605v5.604h5.605z"/><path d="M39.347 11.25h-5.605v5.605h5.605zM33.74 106.793H22.491v5.605H33.74zM39.346 84.293H28.099v5.605h11.247zM39.344 73.05H22.492v5.643h16.852zM33.741 5.639h-5.642v5.605h5.642zM28.099 33.737h5.642V22.49h-5.642V16.85h-5.605v-5.605H5.642V5.639H0V22.49h5.642v5.605h11.21v5.641h5.642V50.59h5.605zM22.495 101.146h-5.642v5.642h5.642zM22.495 50.596h-5.642v11.21h5.642zM16.851 95.543h-5.605v5.605h5.605zM16.851 61.8h-5.605v11.248h5.605z"/><path d="M28.1 0H5.643v5.642H28.1zM11.248 73.05H5.643v22.495h5.605z"/></g><defs><clipPath id="a"><path fill="#fff" d="M0 0h118v118H0z"/></clipPath></defs></svg>