<svg width="40" height="40" viewBox="0 0 40 40" fill="none" xmlns="http://www.w3.org/2000/svg">
<path d="M14.1132 28.6612V11.8612H21.0252C23.2332 11.8612 24.9692 12.3412 26.2332 13.3012C27.5132 14.2452 28.1532 15.6452 28.1532 17.5012C28.1532 19.3412 27.5132 20.7412 26.2332 21.7012C24.9692 22.6452 23.2332 23.1172 21.0252 23.1172H15.8412L17.2332 21.6772V28.6612H14.1132ZM17.2332 22.0132L15.8412 20.5972H21.0012C22.2812 20.5972 23.2652 20.3332 23.9532 19.8052C24.6572 19.2612 25.0092 18.5012 25.0092 17.5252C25.0092 16.5492 24.6572 15.8052 23.9532 15.2932C23.2652 14.7652 22.2812 14.5012 21.0012 14.5012H15.8412L17.2332 12.9652V22.0132ZM11.7132 26.1652V24.4852H22.5132V26.1652H11.7132Z" fill="url(#paint0_linear_5629_8827)"/>
<path fill-rule="evenodd" clip-rule="evenodd" d="M24.7729 0.577867C28.2552 1.43363 31.4314 3.20665 33.979 5.69658V2.66121C33.979 2.10892 34.4267 1.66121 34.979 1.66121C35.5313 1.66121 35.979 2.10892 35.979 2.66121V8.56121C35.979 9.16872 35.4865 9.66121 34.879 9.66121H28.979C28.4267 9.66121 27.979 9.21349 27.979 8.66121C27.979 8.10892 28.4267 7.66121 28.979 7.66121H32.1742C29.9563 5.47289 27.1815 3.91543 24.1366 3.16716C20.5693 2.29052 16.8158 2.56984 13.4176 3.96481C10.0193 5.35978 7.15215 7.79827 5.22968 10.9284C3.54045 13.6788 2.65736 16.8383 2.6664 20.0486C2.66847 20.7849 2.12641 21.4279 1.39246 21.4865C0.658514 21.5451 0.0113291 20.9973 0.00170752 20.2611C-0.0476205 16.4866 0.972625 12.765 2.95765 9.53302C5.17585 5.92135 8.48409 3.10776 12.405 1.49822C16.326 -0.111334 20.6569 -0.433617 24.7729 0.577867ZM7.17518 31.6612H9.97903C10.5313 31.6612 10.979 31.2135 10.979 30.6612C10.979 30.1089 10.5313 29.6612 9.97903 29.6612H4.07903C3.47152 29.6612 2.97903 30.1537 2.97903 30.7612L2.97903 36.6612C2.97903 37.2135 3.42674 37.6612 3.97903 37.6612C4.53131 37.6612 4.97903 37.2135 4.97903 36.6612L4.97903 33.2051C7.28743 35.8309 10.2532 37.8158 13.5886 38.9445C17.6033 40.3032 21.946 40.3513 25.9899 39.0819C30.0338 37.8125 33.5698 35.2912 36.0879 31.8818C38.3412 28.8308 39.675 25.2097 39.9476 21.4448C40.0008 20.7104 39.4027 20.1094 38.6664 20.1053C37.9302 20.1011 37.3352 20.6956 37.2745 21.4293C37.0099 24.6287 35.8606 27.7014 33.9431 30.2978C31.7607 33.2527 28.6961 35.4378 25.1913 36.538C21.6865 37.6382 17.9228 37.5965 14.4433 36.4189C11.645 35.4719 9.14688 33.8297 7.17518 31.6612Z" fill="url(#paint1_linear_5629_8827)"/>
<defs>
<linearGradient id="paint0_linear_5629_8827" x1="31.9117" y1="19.6612" x2="9.86678" y2="19.6612" gradientUnits="userSpaceOnUse">
<stop stop-color="#FF3384"/>
<stop offset="0.491005" stop-color="#A68CDE"/>
<stop offset="1" stop-color="#00EDE8"/>
</linearGradient>
<linearGradient id="paint1_linear_5629_8827" x1="46.3716" y1="20" x2="-2.49693" y2="20" gradientUnits="userSpaceOnUse">
<stop stop-color="#FF3384"/>
<stop offset="0.491005" stop-color="#A68CDE"/>
<stop offset="1" stop-color="#00EDE8"/>
</linearGradient>
</defs>
</svg>
