<svg width="56" height="56" viewBox="0 0 56 56" fill="none" xmlns="http://www.w3.org/2000/svg">
<g clip-path="url(#clip0_1216_825)">
<path d="M20.5333 26.1333H35.4667V22.4H20.5333V26.1333ZM37.3333 28V39.2H41.0667V28H37.3333ZM35.4667 41.0667H20.5333V44.8H35.4667V41.0667ZM18.6667 39.2V28H14.9333V39.2H18.6667ZM20.5333 41.0667C20.0383 41.0667 19.5635 40.87 19.2134 40.5199C18.8633 40.1699 18.6667 39.6951 18.6667 39.2H14.9333C14.9333 40.6852 15.5233 42.1096 16.5735 43.1598C17.6237 44.21 19.0481 44.8 20.5333 44.8V41.0667ZM37.3333 39.2C37.3333 39.6951 37.1367 40.1699 36.7866 40.5199C36.4365 40.87 35.9617 41.0667 35.4667 41.0667V44.8C36.9519 44.8 38.3763 44.21 39.4265 43.1598C40.4767 42.1096 41.0667 40.6852 41.0667 39.2H37.3333ZM35.4667 26.1333C35.9617 26.1333 36.4365 26.33 36.7866 26.6801C37.1367 27.0301 37.3333 27.5049 37.3333 28H41.0667C41.0667 26.5148 40.4767 25.0904 39.4265 24.0402C38.3763 22.99 36.9519 22.4 35.4667 22.4V26.1333ZM20.5333 22.4C19.0481 22.4 17.6237 22.99 16.5735 24.0402C15.5233 25.0904 14.9333 26.5148 14.9333 28H18.6667C18.6667 27.5049 18.8633 27.0301 19.2134 26.6801C19.5635 26.33 20.0383 26.1333 20.5333 26.1333V22.4ZM22.4 24.2667V20.5333H18.6667V24.2667H22.4ZM33.6 20.5333V24.2667H37.3333V20.5333H33.6ZM28 14.9333C29.4852 14.9333 30.9096 15.5233 31.9598 16.5735C33.01 17.6237 33.6 19.0481 33.6 20.5333H37.3333C37.3333 18.058 36.35 15.684 34.5997 13.9337C32.8493 12.1833 30.4754 11.2 28 11.2V14.9333ZM22.4 20.5333C22.4 19.0481 22.99 17.6237 24.0402 16.5735C25.0904 15.5233 26.5148 14.9333 28 14.9333V11.2C25.5246 11.2 23.1507 12.1833 21.4003 13.9337C19.65 15.684 18.6667 18.058 18.6667 20.5333H22.4ZM3.73333 28C3.73333 21.5641 6.28999 15.3918 10.8409 10.8409C15.3918 6.28999 21.5641 3.73333 28 3.73333V0C20.5739 0 13.452 2.94999 8.20101 8.20101C2.94999 13.452 0 20.5739 0 28H3.73333ZM28 52.2667C21.5641 52.2667 15.3918 49.71 10.8409 45.1591C6.28999 40.6082 3.73333 34.4359 3.73333 28H0C0 35.4261 2.94999 42.548 8.20101 47.799C13.452 53.05 20.5739 56 28 56V52.2667ZM52.2667 28C52.2667 31.1867 51.639 34.3423 50.4195 37.2864C49.2 40.2306 47.4125 42.9058 45.1591 45.1591C42.9058 47.4125 40.2306 49.2 37.2864 50.4195C34.3423 51.639 31.1867 52.2667 28 52.2667V56C35.4261 56 42.548 53.05 47.799 47.799C53.05 42.548 56 35.4261 56 28H52.2667ZM56 28C56 20.5739 53.05 13.452 47.799 8.20101C42.548 2.94999 35.4261 0 28 0V3.73333C31.1867 3.73333 34.3423 4.36101 37.2864 5.58052C40.2306 6.80004 42.9058 8.58751 45.1591 10.8409C47.4125 13.0942 49.2 15.7694 50.4195 18.7135C51.639 21.6577 52.2667 24.8133 52.2667 28H56Z" fill="url(#paint0_linear_1216_825)"/>
</g>
<defs>
<linearGradient id="paint0_linear_1216_825" x1="65" y1="28" x2="-3.5" y2="28" gradientUnits="userSpaceOnUse">
<stop stop-color="#FF3384"/>
<stop offset="0.491005" stop-color="#A68CDE"/>
<stop offset="1" stop-color="#00EDE8"/>
</linearGradient>
<clipPath id="clip0_1216_825">
<rect width="56" height="56" fill="white"/>
</clipPath>
</defs>
</svg>
