<svg width="40" height="40" viewBox="0 0 40 40" fill="none" xmlns="http://www.w3.org/2000/svg">
<rect width="40" height="40" rx="20" fill="url(#paint0_linear_5629_8828)"/>
<path d="M14.12 29V12.2H21.032C23.24 12.2 24.976 12.68 26.24 13.64C27.52 14.584 28.16 15.984 28.16 17.84C28.16 19.68 27.52 21.08 26.24 22.04C24.976 22.984 23.24 23.456 21.032 23.456H15.848L17.24 22.016V29H14.12ZM17.24 22.352L15.848 20.936H21.008C22.288 20.936 23.272 20.672 23.96 20.144C24.664 19.6 25.016 18.84 25.016 17.864C25.016 16.888 24.664 16.144 23.96 15.632C23.272 15.104 22.288 14.84 21.008 14.84H15.848L17.24 13.304V22.352ZM11.72 26.504V24.824H22.52V26.504H11.72Z" fill="white"/>
<defs>
<linearGradient id="paint0_linear_5629_8828" x1="46.4286" y1="20" x2="-2.5" y2="20" gradientUnits="userSpaceOnUse">
<stop stop-color="#FF3384"/>
<stop offset="0.491005" stop-color="#A68CDE"/>
<stop offset="1" stop-color="#00EDE8"/>
</linearGradient>
</defs>
</svg>
