<svg width="40" height="40" viewBox="0 0 40 40" fill="none" xmlns="http://www.w3.org/2000/svg">
<path fill-rule="evenodd" clip-rule="evenodd" d="M20 0.5C17.4392 0.5 14.9035 1.00438 12.5377 1.98435C10.1718 2.96432 8.02216 4.40068 6.21142 6.21142C4.40068 8.02216 2.96432 10.1718 1.98435 12.5377C1.00438 14.9035 0.5 17.4392 0.5 20C0.5 22.5608 1.00438 25.0965 1.98435 27.4623C2.96432 29.8282 4.40068 31.9778 6.21142 33.7886C8.02216 35.5993 10.1718 37.0357 12.5377 38.0157C14.9035 38.9956 17.4392 39.5 20 39.5C22.5608 39.5 25.0965 38.9956 27.4623 38.0157C29.8282 37.0357 31.9778 35.5993 33.7886 33.7886C35.5993 31.9778 37.0357 29.8282 38.0157 27.4623C38.9956 25.0965 39.5 22.5608 39.5 20C39.5 17.4392 38.9956 14.9035 38.0157 12.5377C37.0357 10.1718 35.5993 8.02216 33.7886 6.21142C31.9778 4.40068 29.8282 2.96432 27.4623 1.98435C25.0965 1.00438 22.5608 0.5 20 0.5ZM13.6857 4.75599C15.6876 3.92679 17.8332 3.5 20 3.5C22.1668 3.5 24.3124 3.92679 26.3143 4.75599C28.3161 5.58519 30.1351 6.80057 31.6673 8.33274C33.1994 9.86491 34.4148 11.6839 35.244 13.6857C36.0732 15.6876 36.5 17.8332 36.5 20C36.5 22.1668 36.0732 24.3124 35.244 26.3143C34.4148 28.3161 33.1994 30.1351 31.6673 31.6673C30.1351 33.1994 28.3161 34.4148 26.3143 35.244C24.3124 36.0732 22.1668 36.5 20 36.5C17.8332 36.5 15.6876 36.0732 13.6857 35.244C11.6839 34.4148 9.86491 33.1994 8.33274 31.6673C6.80057 30.1351 5.58519 28.3161 4.75599 26.3143C3.92678 24.3124 3.5 22.1668 3.5 20C3.5 17.8332 3.92678 15.6876 4.75599 13.6857C5.58519 11.6839 6.80057 9.8649 8.33274 8.33274C9.8649 6.80057 11.6839 5.58519 13.6857 4.75599ZM18.2322 14.2322C18.7011 13.7634 19.337 13.5 20 13.5C20.663 13.5 21.2989 13.7634 21.7678 14.2322C22.2366 14.7011 22.5 15.337 22.5 16V20.5H17.5V16C17.5 15.337 17.7634 14.7011 18.2322 14.2322ZM25.5 16V22V28C25.5 28.8284 24.8284 29.5 24 29.5C23.1716 29.5 22.5 28.8284 22.5 28V23.5H17.5V28C17.5 28.8284 16.8284 29.5 16 29.5C15.1716 29.5 14.5 28.8284 14.5 28V22V16C14.5 14.5413 15.0795 13.1424 16.1109 12.1109C17.1424 11.0795 18.5413 10.5 20 10.5C21.4587 10.5 22.8576 11.0795 23.8891 12.1109C24.9205 13.1424 25.5 14.5413 25.5 16Z" fill="url(#paint0_linear_3528_3986)"/>
<defs>
<linearGradient id="paint0_linear_3528_3986" x1="45.7679" y1="20" x2="-1.9375" y2="20" gradientUnits="userSpaceOnUse">
<stop stop-color="#FF3384"/>
<stop offset="0.491005" stop-color="#A68CDE"/>
<stop offset="1" stop-color="#00EDE8"/>
</linearGradient>
</defs>
</svg>
