<svg viewBox="0 0 24 24" fill="none" xmlns="http://www.w3.org/2000/svg">
<path d="M12 15.5625C12.7046 15.5625 13.3934 15.3536 13.9792 14.9621C14.5651 14.5707 15.0217 14.0143 15.2913 13.3633C15.561 12.7123 15.6315 11.996 15.494 11.305C15.3566 10.6139 15.0173 9.97916 14.5191 9.48093C14.0208 8.98271 13.3861 8.64341 12.695 8.50595C12.004 8.36849 11.2877 8.43904 10.6367 8.70868C9.98573 8.97832 9.42934 9.43493 9.03789 10.0208C8.64644 10.6066 8.4375 11.2954 8.4375 12C8.4375 12.9448 8.81283 13.851 9.48093 14.5191C10.149 15.1872 11.0552 15.5625 12 15.5625ZM12 9.5625C12.4821 9.5625 12.9534 9.70546 13.3542 9.97329C13.755 10.2411 14.0675 10.6218 14.252 11.0672C14.4364 11.5126 14.4847 12.0027 14.3907 12.4755C14.2966 12.9484 14.0645 13.3827 13.7236 13.7236C13.3827 14.0645 12.9484 14.2966 12.4755 14.3907C12.0027 14.4847 11.5126 14.4364 11.0672 14.252C10.6218 14.0675 10.2411 13.755 9.97329 13.3542C9.70546 12.9534 9.5625 12.4821 9.5625 12C9.5625 11.3535 9.81931 10.7335 10.2764 10.2764C10.7335 9.81931 11.3535 9.5625 12 9.5625ZM22.5 5.4375H1.5C1.35082 5.4375 1.20774 5.49676 1.10225 5.60225C0.996763 5.70774 0.9375 5.85082 0.9375 6V18C0.9375 18.1492 0.996763 18.2923 1.10225 18.3977C1.20774 18.5032 1.35082 18.5625 1.5 18.5625H22.5C22.6492 18.5625 22.7923 18.5032 22.8977 18.3977C23.0032 18.2923 23.0625 18.1492 23.0625 18V6C23.0625 5.85082 23.0032 5.70774 22.8977 5.60225C22.7923 5.49676 22.6492 5.4375 22.5 5.4375ZM2.5 10.2019C3.37341 9.96952 4.73245 9.51059 5.37152 8.87152C6.01059 8.23245 6.46952 7.87341 6.70187 7H17.2981C17.5305 7.87341 17.9894 8.23245 18.6285 8.87152C19.2676 9.51059 20.6266 9.96952 21.5 10.2019V13.7981C20.6266 14.0305 19.2676 14.4894 18.6285 15.1285C17.9894 15.7676 17.6681 16.1266 17.4357 17H6.83947C6.60712 16.1266 6.01059 15.7676 5.37152 15.1285C4.73245 14.4894 3.37341 14.0305 2.5 13.7981V10.2019ZM21.5 9.02719C20.9303 8.82816 19.8503 8.50318 19.4236 8.07645C18.9968 7.64972 18.6718 7.56972 18.4728 7H21.5V9.02719ZM5.52719 7C5.32816 7.56972 5.00318 7.64972 4.57645 8.07645C4.14972 8.50318 3.06972 8.82816 2.5 9.02719V7H5.52719ZM2.5 14.9728C3.06972 15.1718 4.14972 15.4968 4.57645 15.9236C5.00318 16.3503 5.32816 16.4303 5.52719 17H2.5V14.9728ZM18.4728 17C18.6718 16.4303 18.9968 16.3503 19.4236 15.9236C19.8503 15.4968 20.9303 15.1718 21.5 14.9728V17H18.4728Z" fill="url(#paint0_linear_3696_18871)"/>
<defs>
<linearGradient id="paint0_linear_3696_18871" x1="26.6183" y1="12" x2="-0.445313" y2="12" gradientUnits="userSpaceOnUse">
<stop stop-color="#FF3384"/>
<stop offset="0.491005" stop-color="#A68CDE"/>
<stop offset="1" stop-color="#00EDE8"/>
</linearGradient>
</defs>
</svg>
