<svg  viewBox="0 0 56 50" fill="none" xmlns="http://www.w3.org/2000/svg">
<g clip-path="url(#clip0_1640_11371)">
<path fill-rule="evenodd" clip-rule="evenodd" d="M34.8495 47.8953C31.791 49.1469 28.5114 49.7868 25.2007 49.7777C21.8901 49.7868 18.6105 49.1469 15.552 47.8953C12.4935 46.6437 9.7169 44.8051 7.383 42.4861C2.62339 37.7881 0 31.539 0 24.8888C0 18.2387 2.62339 11.9896 7.383 7.29162C12.1398 2.59091 18.4673 0 25.2007 0C31.9342 0 38.2617 2.59091 43.0185 7.29162L39.0596 11.2015C35.3583 7.54601 30.4363 5.53024 25.2007 5.53024C19.9652 5.53024 15.0432 7.54601 11.3419 11.2015C7.64058 14.857 5.59954 19.7181 5.59954 24.8888C5.59954 30.0596 7.64058 34.9207 11.3419 38.5762C15.0432 42.2317 19.9652 44.2474 25.2007 44.2474C30.4363 44.2474 35.3583 42.2317 39.0596 38.5762L43.0185 42.4861C40.6846 44.8051 37.908 46.6437 34.8495 47.8953ZM42.0015 13.8287L56.0003 24.8892L42.0015 35.9497V27.6543H16.8035V22.1241H42.0015V13.8287Z" fill="url(#paint0_linear_1640_11371)"/>
</g>
<defs>
<linearGradient id="paint0_linear_1640_11371" x1="65.0004" y1="24.8889" x2="-3.50002" y2="24.8889" gradientUnits="userSpaceOnUse">
<stop stop-color="#FF3384"/>
<stop offset="0.491005" stop-color="#A68CDE"/>
<stop offset="1" stop-color="#00EDE8"/>
</linearGradient>
<clipPath id="clip0_1640_11371">
<rect width="56" height="49.7778" fill="white"/>
</clipPath>
</defs>
</svg>
