<svg viewBox="0 0 24 24" fill="none" xmlns="http://www.w3.org/2000/svg">
<path fill-rule="evenodd" clip-rule="evenodd" d="M3 5.25C3 5.11193 3.11193 5 3.25 5H20.75C20.8881 5 21 5.11193 21 5.25V9.4502H18.174C17.5974 9.4502 17.0445 9.67924 16.6368 10.0869C16.229 10.4946 16 11.0476 16 11.6242V12.3762C16 12.9528 16.229 13.5057 16.6368 13.9134C17.0445 14.3211 17.5974 14.5502 18.174 14.5502H21V18.75C21 18.8881 20.8881 19 20.75 19H3.25C3.11193 19 3 18.8881 3 18.75V5.25ZM21 13.0502V10.9502H18.174C17.9952 10.9502 17.8238 11.0212 17.6974 11.1476C17.571 11.274 17.5 11.4454 17.5 11.6242V12.3762C17.5 12.555 17.571 12.7264 17.6974 12.8528C17.8238 12.9792 17.9952 13.0502 18.174 13.0502H21ZM22.5 13.8002V18.75C22.5 19.7165 21.7165 20.5 20.75 20.5H3.25C2.2835 20.5 1.5 19.7165 1.5 18.75V5.25C1.5 4.2835 2.2835 3.5 3.25 3.5H20.75C21.7165 3.5 22.5 4.2835 22.5 5.25V10.2002V13.8002ZM18.2354 12.3975C18.4549 12.3975 18.6329 12.2196 18.6329 12C18.6329 11.7805 18.4549 11.6025 18.2354 11.6025C18.0159 11.6025 17.8379 11.7805 17.8379 12C17.8379 12.2196 18.0159 12.3975 18.2354 12.3975ZM13.1171 7.87372C13.4783 7.67095 13.6068 7.21377 13.404 6.85258C13.2012 6.49139 12.744 6.36297 12.3829 6.56573C11.7105 6.94318 11.1691 7.74824 10.7374 8.57021C10.284 9.43328 9.87 10.4798 9.51312 11.5232C9.2896 12.1766 9.08541 12.8381 8.90561 13.4653L8.88794 13.4013C8.73046 12.8324 8.57718 12.3112 8.46335 11.9325C8.40639 11.743 8.35921 11.5889 8.32619 11.4818L8.2878 11.358L8.27758 11.3253L8.27489 11.3167L8.27418 11.3144L8.27398 11.3138L8.27392 11.3136C8.2739 11.3136 8.27389 11.3135 7.5585 11.5387L8.27389 11.3135C8.19404 11.0599 7.98589 10.8675 7.72678 10.8078C7.46768 10.7482 7.19635 10.8302 7.01363 11.0233C6.88337 11.1611 6.72638 11.413 6.60571 11.6121C6.46501 11.8442 6.30482 12.1232 6.15557 12.3884C6.00575 12.6547 5.86429 12.9118 5.76046 13.1021C5.70848 13.1973 5.6658 13.276 5.63605 13.3311L5.60156 13.395L5.59242 13.412L5.59003 13.4164L5.58939 13.4176L5.58922 13.4179L5.58917 13.418L6.25 13.7727L5.58914 13.4181C5.39328 13.7831 5.53039 14.2377 5.89537 14.4336C6.26035 14.6294 6.715 14.4923 6.91086 14.1274L6.91088 14.1273L6.91099 14.1271L6.9115 14.1262L6.91365 14.1222L6.92226 14.1062L6.9556 14.0444C6.98454 13.9908 7.02626 13.9139 7.07715 13.8206C7.14554 13.6953 7.23023 13.541 7.32255 13.3749C7.3618 13.5128 7.40192 13.6556 7.44231 13.8015C7.75727 14.9394 8.06317 16.1818 8.11971 16.8449C8.15171 17.2202 8.45703 17.5135 8.83326 17.5305C9.2095 17.5474 9.53995 17.2827 9.60554 16.9118C9.74585 16.1185 10.2423 14.0262 10.9324 12.0086C11.2773 11.0004 11.6626 10.0345 12.0653 9.2677C12.4897 8.45977 12.861 8.01752 13.1171 7.87372Z" fill="url(#paint0_linear_3696_18806)"/>
<defs>
<linearGradient id="paint0_linear_3696_18806" x1="25.875" y1="12" x2="0.1875" y2="12" gradientUnits="userSpaceOnUse">
<stop stop-color="#FF3384"/>
<stop offset="0.491005" stop-color="#A68CDE"/>
<stop offset="1" stop-color="#00EDE8"/>
</linearGradient>
</defs>
</svg>
