<svg viewBox="0 0 24 24" fill="none" xmlns="http://www.w3.org/2000/svg">
<path d="M19 3H5C3.89 3 3 3.89 3 5V19C3 19.5304 3.21071 20.0391 3.58579 20.4142C3.96086 20.7893 4.46957 21 5 21H19C20.11 21 21 20.11 21 19V5C21 4.46957 20.7893 3.96086 20.4142 3.58579C20.0391 3.21071 19.5304 3 19 3ZM19 19H5V5H19V19ZM17 15.22C17 16.2 16.2 17 15.22 17C14.24 17 13.45 16.2 13.45 15.22C13.45 14.24 14.24 13.45 15.22 13.45C16.2 13.45 17 14.24 17 15.22ZM8.5 17.03L7 15.53L15.53 7L17.03 8.5L8.5 17.03ZM7.05 8.83C7.05 7.84 7.84 7.05 8.83 7.05C9.81 7.05 10.6 7.84 10.6 8.83C10.6 9.81 9.81 10.6 8.83 10.6C7.84 10.6 7.05 9.81 7.05 8.83Z" fill="url(#paint0_linear_3696_18822)"/>
<defs>
<linearGradient id="paint0_linear_3696_18822" x1="23.8929" y1="12" x2="1.875" y2="12" gradientUnits="userSpaceOnUse">
<stop stop-color="#FF3384"/>
<stop offset="0.491005" stop-color="#A68CDE"/>
<stop offset="1" stop-color="#00EDE8"/>
</linearGradient>
</defs>
</svg>
