<svg width="20" height="20" viewBox="0 0 20 20" fill="none" xmlns="http://www.w3.org/2000/svg">
<path d="M1.66669 18.334H18.3334" stroke="#201F1F" stroke-width="1.5" stroke-linecap="round" stroke-linejoin="round"/>
<path d="M2.59167 18.334V10.834C2.59167 9.45065 3.83334 8.33398 5.36668 8.33398H14.625C16.1583 8.33398 17.4 9.45065 17.4 10.834V18.334" stroke="#201F1F" stroke-width="1.5" stroke-linecap="round" stroke-linejoin="round"/>
<path d="M4.63336 8.33268V5.97435C4.63336 4.97435 5.53336 4.16602 6.65003 4.16602H13.3584C14.4667 4.16602 15.3667 4.97435 15.3667 5.97435V8.33268" stroke="#201F1F" stroke-width="1.5" stroke-linecap="round" stroke-linejoin="round"/>
<path d="M2.94165 11.6504L3.24998 11.6587C3.86665 11.6671 4.35832 12.1671 4.35832 12.7837V13.0587C4.35832 13.6754 4.85832 14.1837 5.48332 14.1837C6.09998 14.1837 6.60832 13.6837 6.60832 13.0587V12.8004C6.60832 12.1837 7.10832 11.6754 7.73332 11.6754C8.34998 11.6754 8.85832 12.1754 8.85832 12.8004V13.0587C8.85832 13.6754 9.35832 14.1837 9.98332 14.1837C10.6 14.1837 11.1083 13.6837 11.1083 13.0587V12.8004C11.1083 12.1837 11.6083 11.6754 12.2333 11.6754C12.85 11.6754 13.3583 12.1754 13.3583 12.8004V13.0587C13.3583 13.6754 13.8583 14.1837 14.4833 14.1837C15.1 14.1837 15.6083 13.6837 15.6083 13.0587V12.8004C15.6083 12.1837 16.1083 11.6754 16.7333 11.6754H17.1083" stroke="#201F1F" stroke-width="1.5" stroke-linecap="round" stroke-linejoin="round"/>
<path d="M6.66669 4.16667V2.5" stroke="#201F1F" stroke-width="1.5" stroke-linecap="round" stroke-linejoin="round"/>
<path d="M13.3333 4.16667V2.5" stroke="#201F1F" stroke-width="1.5" stroke-linecap="round" stroke-linejoin="round"/>
<path d="M10 4.16602V1.66602" stroke="#201F1F" stroke-width="1.5" stroke-linecap="round" stroke-linejoin="round"/>
</svg>
