<svg  viewBox="0 0 56 56" fill="none" xmlns="http://www.w3.org/2000/svg">
<g clip-path="url(#clip0_1640_11355)">
<path fill-rule="evenodd" clip-rule="evenodd" d="M52 28C52 41.2548 41.2548 52 28 52C14.7452 52 4 41.2548 4 28C4 14.7452 14.7452 4 28 4C41.2548 4 52 14.7452 52 28ZM56 28C56 43.464 43.464 56 28 56C12.536 56 0 43.464 0 28C0 12.536 12.536 0 28 0C43.464 0 56 12.536 56 28ZM24.7102 10C24.6961 10 24.682 10.0001 24.6679 10.0004C24.0071 10.0144 23.3717 10.2575 22.8702 10.688C22.3688 11.1186 22.0324 11.7099 21.9186 12.361C21.9148 12.383 21.9113 12.405 21.9082 12.427L21.4467 15.7107C21.0331 15.926 20.63 16.1609 20.2387 16.4147L17.1625 15.176C17.1504 15.1711 17.1384 15.1664 17.1263 15.1618C16.5028 14.9247 15.8158 14.9154 15.1861 15.1353C14.5565 15.3552 14.0247 15.7904 13.6845 16.3641L13.6731 16.3834L10.3851 22.0724L10.3839 22.0744C10.0511 22.6491 9.93082 23.3225 10.0442 23.9768C10.1577 24.632 10.4981 25.2263 11.0059 25.6556C11.0242 25.6711 11.0428 25.6863 11.0617 25.7012L13.6778 27.7562C13.6644 27.9859 13.657 28.2197 13.657 28.4581C13.657 28.7054 13.6653 28.9481 13.6793 29.1852L11.066 31.237C11.0525 31.2476 11.0391 31.2584 11.0259 31.2693C10.5095 31.6967 10.1615 32.2936 10.0439 32.9535C9.92649 33.6124 10.0464 34.2916 10.3821 34.8705L10.3838 34.8733L13.6708 40.5605L13.6831 40.5814C14.0237 41.1545 14.5556 41.5892 15.1853 41.8086C15.8149 42.0281 16.5017 42.0183 17.1248 41.781C17.1322 41.7782 17.1396 41.7754 17.1469 41.7725C17.1512 41.7707 17.1556 41.769 17.1599 41.7673L20.2332 40.5302C20.6256 40.7871 21.0307 41.024 21.447 41.2401L21.9074 44.5169C21.9133 44.5586 21.9205 44.6002 21.929 44.6415C22.0597 45.277 22.403 45.8489 22.9022 46.2632C23.4015 46.6775 24.027 46.9093 24.6756 46.9205L24.7102 46.9208H31.2898C31.3039 46.9208 31.318 46.9207 31.3321 46.9204C31.9929 46.9064 32.6283 46.6633 33.1298 46.2328C33.6312 45.8022 33.9676 45.2109 34.0814 44.5598C34.0852 44.5379 34.0887 44.5159 34.0918 44.4938L34.5533 41.2101C34.9669 40.9948 35.37 40.7599 35.7613 40.5061L38.8375 41.7449C38.8496 41.7497 38.8616 41.7544 38.8737 41.759C39.4971 41.9961 40.1842 42.0055 40.8139 41.7855C41.4435 41.5656 41.9753 41.1304 42.3155 40.5568L42.3269 40.5374L45.6147 34.8488L45.6154 34.8477C45.9511 34.2687 46.071 33.5895 45.9536 32.9305C45.8361 32.2711 45.4886 31.6747 44.973 31.2473C44.9591 31.2358 44.9451 31.2245 44.9309 31.2134L42.3156 29.162C42.3284 28.9324 42.3355 28.7023 42.3368 28.4722H42.3369V28.4604C42.3369 28.2138 42.3286 27.9728 42.3155 27.7397L44.934 25.6838C44.9438 25.6761 44.9535 25.6684 44.9631 25.6605C44.9668 25.6575 44.9704 25.6545 44.9741 25.6515C45.4905 25.2241 45.8385 24.6273 45.9561 23.9673C46.0735 23.3086 45.9537 22.6296 45.6181 22.0508L45.6162 22.0476L42.3292 16.3604L42.3169 16.3395C41.9763 15.7663 41.4443 15.3317 40.8147 15.1122C40.1851 14.8928 39.4983 14.9025 38.8752 15.1398C38.8673 15.1428 38.8594 15.1459 38.8516 15.149C38.8477 15.1505 38.8439 15.152 38.8401 15.1536L35.7668 16.3907C35.3744 16.1338 34.9693 15.8968 34.553 15.6808L34.0926 12.4039C34.0867 12.3622 34.0795 12.3206 34.071 12.2793C33.9403 11.6439 33.5971 11.0719 33.0978 10.6576C32.5985 10.2434 31.973 10.0115 31.3244 10.0003L31.2898 10H24.7102ZM25.352 16.6645L25.7265 14H30.2776L30.6484 16.6388L30.6493 16.6455C30.7253 17.1733 30.9305 17.674 31.2467 18.1033C31.5616 18.5308 31.9767 18.8742 32.4555 19.1034C32.9331 19.3341 33.3914 19.6027 33.8261 19.9065L33.8296 19.909C34.2696 20.2151 34.7788 20.407 35.3114 20.4672C35.844 20.5275 36.3833 20.4543 36.8805 20.2543L36.8809 20.2541L39.3785 19.2487L41.6491 23.1773L39.5248 24.8452L39.5222 24.8472C39.0985 25.181 38.765 25.6155 38.5521 26.111C38.3412 26.6018 38.2552 27.1371 38.3016 27.669C38.3236 27.9479 38.3367 28.2074 38.3368 28.4549C38.334 28.8977 38.3013 29.3399 38.239 29.7784C38.1386 30.4855 38.4229 31.1925 38.9849 31.6332L41.6466 33.7209L39.3759 37.6495L36.878 36.6437L36.8708 36.6408C36.373 36.4426 35.8337 36.371 35.3014 36.4324C34.7713 36.4936 34.2646 36.6847 33.8262 36.9888C33.3835 37.2934 32.9185 37.564 32.4349 37.7984L32.4331 37.7993C31.9567 38.0309 31.5446 38.3761 31.2333 38.8046C30.9221 39.233 30.7211 39.7314 30.6481 40.2558L30.648 40.2563L30.2735 42.9208H25.7224L25.3516 40.282L25.3507 40.2753C25.2747 39.7476 25.0695 39.2468 24.7533 38.8175C24.4385 38.3901 24.0234 38.0467 23.5447 37.8176C23.0671 37.5868 22.6087 37.3182 22.174 37.0143L22.1704 37.0118C21.7304 36.7057 21.2212 36.5139 20.6886 36.4536C20.156 36.3933 19.6167 36.4665 19.1195 36.6666L19.1191 36.6667L16.6215 37.6721L14.3509 33.7435L16.4752 32.0757L16.4752 32.0757L16.4836 32.069C16.9054 31.7341 17.237 31.2992 17.4482 30.8037C17.658 30.3113 17.7423 29.7746 17.6937 29.2417C17.6701 28.9665 17.657 28.7073 17.657 28.4581C17.657 28.2048 17.6697 27.9502 17.6934 27.6888L17.6935 27.6888L17.6945 27.6768C17.7397 27.1428 17.6513 26.606 17.4374 26.1146C17.2236 25.6238 16.8913 25.1937 16.4702 24.8632L16.4696 24.8627L16.4688 24.8621L14.3533 23.2002L16.6241 19.2713L19.122 20.2771L19.122 20.2771L19.1292 20.28C19.627 20.4782 20.1663 20.5498 20.6986 20.4884C21.2286 20.4273 21.7352 20.2362 22.1735 19.9322C22.6163 19.6275 23.0815 19.3568 23.5651 19.1224L23.5669 19.1215C24.0433 18.89 24.4554 18.5447 24.7667 18.1162C25.0777 17.6881 25.2787 17.19 25.3518 16.6659L25.352 16.6645ZM28.6804 21.5712C27.26 21.4309 25.831 21.7331 24.589 22.4364C23.347 23.1396 22.3527 24.2096 21.7423 25.4997C21.1319 26.7899 20.9352 28.2372 21.1791 29.6435C21.423 31.0498 22.0956 32.3463 23.1049 33.3555C24.1141 34.3648 25.4106 35.0374 26.8169 35.2813C28.2232 35.5252 29.6705 35.3285 30.9607 34.7181C32.2508 34.1077 33.3208 33.1134 34.0241 31.8714C34.7273 30.6294 35.0295 29.2004 34.8892 27.78L34.8889 27.7767C34.7291 26.1854 34.0239 24.6983 32.893 23.5674C31.7621 22.4365 30.275 21.7314 28.6837 21.5715L28.6804 21.5712ZM26.5599 25.9171C27.0837 25.6205 27.6864 25.4929 28.2855 25.5517C28.9581 25.6196 29.5866 25.9178 30.0646 26.3958C30.5427 26.8739 30.841 27.5026 30.9088 28.1753C30.9675 28.7743 30.8399 29.3768 30.5433 29.9005C30.2464 30.4249 29.7947 30.8447 29.25 31.1024C28.7053 31.3601 28.0942 31.4431 27.5005 31.3402C26.9068 31.2372 26.3594 30.9532 25.9333 30.5271C25.5072 30.101 25.2232 29.5536 25.1202 28.9599C25.0173 28.3662 25.1003 27.7551 25.358 27.2104C25.6157 26.6657 26.0355 26.214 26.5599 25.9171Z" fill="url(#paint0_linear_1640_11355)"/>
</g>
<defs>
<linearGradient id="paint0_linear_1640_11355" x1="65" y1="28" x2="-3.5" y2="28" gradientUnits="userSpaceOnUse">
<stop stop-color="#FF3384"/>
<stop offset="0.491005" stop-color="#A68CDE"/>
<stop offset="1" stop-color="#00EDE8"/>
</linearGradient>
<clipPath id="clip0_1640_11355">
<rect width="56" height="56" fill="white"/>
</clipPath>
</defs>
</svg>
