<svg viewBox="0 0 56 56" fill="none" xmlns="http://www.w3.org/2000/svg">
<g clip-path="url(#clip0_1640_11394)">
<path fill-rule="evenodd" clip-rule="evenodd" d="M52 28C52 41.2548 41.2548 52 28 52C14.7452 52 4 41.2548 4 28C4 14.7452 14.7452 4 28 4C41.2548 4 52 14.7452 52 28ZM56 28C56 43.464 43.464 56 28 56C12.536 56 0 43.464 0 28C0 12.536 12.536 0 28 0C43.464 0 56 12.536 56 28ZM13.5169 27.4686C13.8478 27.1686 14.2967 27 14.7647 27C15.2327 27 15.6816 27.1686 16.0125 27.4686C16.3435 27.7687 16.5294 28.1757 16.5294 28.6V41.4C16.5294 41.8243 16.3435 42.2313 16.0125 42.5314C15.6816 42.8314 15.2327 43 14.7647 43C14.2967 43 13.8478 42.8314 13.5169 42.5314C13.1859 42.2313 13 41.8243 13 41.4V28.6C13 28.1757 13.1859 27.7687 13.5169 27.4686ZM22.3404 11.4686C22.6713 11.1686 23.1202 11 23.5882 11C24.0563 11 24.5051 11.1686 24.8361 11.4686C25.167 11.7687 25.3529 12.1757 25.3529 12.6V41.4C25.3529 41.8243 25.167 42.2313 24.8361 42.5314C24.5051 42.8314 24.0563 43 23.5882 43C23.1202 43 22.6713 42.8314 22.3404 42.5314C22.0095 42.2313 21.8235 41.8243 21.8235 41.4V12.6C21.8235 12.1757 22.0095 11.7687 22.3404 11.4686ZM39.9875 33.8686C40.3184 33.5686 40.7673 33.4 41.2353 33.4C41.7033 33.4 42.1522 33.5686 42.4831 33.8686C42.8141 34.1687 43 34.5757 43 35V41.4C43 41.8243 42.8141 42.2313 42.4831 42.5314C42.1522 42.8314 41.7033 43 41.2353 43C40.7673 43 40.3184 42.8314 39.9875 42.5314C39.6565 42.2313 39.4706 41.8243 39.4706 41.4V35C39.4706 34.5757 39.6565 34.1687 39.9875 33.8686ZM31.1639 21.0686C31.4949 20.7686 31.9437 20.6 32.4118 20.6C32.8798 20.6 33.3287 20.7686 33.6596 21.0686C33.9905 21.3687 34.1765 21.7757 34.1765 22.2V41.4C34.1765 41.8243 33.9905 42.2313 33.6596 42.5314C33.3287 42.8314 32.8798 43 32.4118 43C31.9437 43 31.4949 42.8314 31.1639 42.5314C30.833 42.2313 30.6471 41.8243 30.6471 41.4V22.2C30.6471 21.7757 30.833 21.3687 31.1639 21.0686Z" fill="url(#paint0_linear_1640_11394)"/>
</g>
<defs>
<linearGradient id="paint0_linear_1640_11394" x1="65" y1="28" x2="-3.5" y2="28" gradientUnits="userSpaceOnUse">
<stop stop-color="#FF3384"/>
<stop offset="0.491005" stop-color="#A68CDE"/>
<stop offset="1" stop-color="#00EDE8"/>
</linearGradient>
<clipPath id="clip0_1640_11394">
<rect width="56" height="56" fill="white"/>
</clipPath>
</defs>
</svg>
