<svg viewBox="0 0 10 16" fill="none" xmlns="http://www.w3.org/2000/svg">
<path d="M0.316206 15.6838C0.105402 15.473 0 15.2234 0 14.935C0 14.6472 0.105402 14.3979 0.316206 14.1871L6.49275 8.01054L0.295125 1.81291C0.098375 1.61616 0 1.37022 0 1.0751C0 0.779974 0.105402 0.527009 0.316206 0.316206C0.527009 0.105402 0.776601 0 1.06498 0C1.3528 0 1.60211 0.105402 1.81291 0.316206L8.89592 7.42029C8.98024 7.50461 9.04011 7.59596 9.07552 7.69433C9.11037 7.79271 9.1278 7.89811 9.1278 8.01054C9.1278 8.12297 9.11037 8.22837 9.07552 8.32675C9.04011 8.42512 8.98024 8.51647 8.89592 8.60079L1.79183 15.7049C1.59508 15.9016 1.3528 16 1.06498 16C0.776601 16 0.527009 15.8946 0.316206 15.6838Z" fill="#838383"/>
</svg>
