<svg  viewBox="0 0 56 56" fill="none" xmlns="http://www.w3.org/2000/svg">
<g clip-path="url(#clip0_1640_11359)">
<circle cx="28" cy="28" r="26" fill="url(#paint0_linear_1640_11359)" stroke="url(#paint1_linear_1640_11359)" stroke-width="4"/>
<path d="M28 32C30.2091 32 32 30.2091 32 28C32 25.7909 30.2091 24 28 24C25.7909 24 24 25.7909 24 28C24 30.2091 25.7909 32 28 32Z" fill="white"/>
<path d="M44.7492 31.3478L44.7124 31.3189L42.2468 29.4358C42.0907 29.3155 41.9661 29.1608 41.8832 28.9845C41.8004 28.8082 41.7617 28.6152 41.7703 28.4215V27.542C41.7624 27.3495 41.8016 27.1579 41.8846 26.9831C41.9676 26.8082 42.092 26.655 42.2476 26.5361L44.7124 24.6522L44.7492 24.6233C45.1293 24.3149 45.3844 23.8848 45.4688 23.41C45.5533 22.9353 45.4616 22.4467 45.2101 22.0317L41.8734 16.4089C41.8695 16.4036 41.8662 16.398 41.8632 16.3922C41.6104 15.983 41.2184 15.6729 40.7553 15.5158C40.2922 15.3588 39.7872 15.3646 39.3281 15.5324L39.3007 15.5423L36.4023 16.6783C36.2194 16.7503 36.0215 16.779 35.8249 16.7619C35.6284 16.7448 35.4388 16.6825 35.2718 16.5801C35.0156 16.4229 34.7552 16.2742 34.4906 16.1342C34.3191 16.0436 34.1718 15.915 34.0606 15.7588C33.9495 15.6026 33.8776 15.4231 33.8508 15.2349L33.414 12.2226L33.4047 12.1678C33.3096 11.7013 33.0525 11.2808 32.6766 10.9771C32.3008 10.6733 31.829 10.5049 31.3406 10.5H24.6594C24.1641 10.5015 23.6853 10.6733 23.3073 10.9849C22.9293 11.2965 22.6763 11.7281 22.593 12.2036L22.5859 12.2462L22.1508 15.2646C22.1241 15.4523 22.0528 15.6313 21.9425 15.7875C21.8322 15.9436 21.6861 16.0725 21.5156 16.1639C21.2503 16.3031 20.9897 16.4508 20.7344 16.6067C20.5677 16.7085 20.3786 16.7704 20.1827 16.7872C19.9867 16.804 19.7894 16.7752 19.607 16.7034L16.7063 15.5621L16.6789 15.5514C16.2191 15.3835 15.7134 15.3778 15.2498 15.5355C14.7862 15.6931 14.394 16.0041 14.1414 16.4142L14.1313 16.431L10.7899 22.0576C10.538 22.473 10.4461 22.9621 10.5306 23.4374C10.615 23.9128 10.8703 24.3433 11.2508 24.6522L11.2875 24.6811L13.7532 26.5642C13.9093 26.6845 14.0339 26.8392 14.1168 27.0155C14.1996 27.1918 14.2383 27.3848 14.2297 27.5785V28.458C14.2375 28.6505 14.1983 28.8421 14.1154 29.0169C14.0324 29.1918 13.908 29.345 13.7524 29.4639L11.2875 31.3478L11.2508 31.3767C10.8707 31.6851 10.6156 32.1152 10.5311 32.59C10.4467 33.0647 10.5384 33.5533 10.7899 33.9683L14.1266 39.5911C14.1304 39.5964 14.1338 39.602 14.1367 39.6078C14.3896 40.017 14.7816 40.3271 15.2447 40.4842C15.7078 40.6412 16.2128 40.6354 16.6719 40.4676L16.6992 40.4577L19.5953 39.3217C19.7783 39.2497 19.9762 39.221 20.1727 39.2381C20.3693 39.2552 20.5588 39.3175 20.7258 39.4199C20.982 39.5776 21.2425 39.7263 21.507 39.8658C21.6786 39.9564 21.8259 40.085 21.937 40.2412C22.0482 40.3974 22.12 40.5769 22.1469 40.7651L22.5813 43.7774L22.5906 43.8322C22.6859 44.2995 22.9436 44.7206 23.3205 45.0244C23.6973 45.3282 24.1702 45.4962 24.6594 45.5H31.3406C31.8359 45.4985 32.3147 45.3267 32.6927 45.0151C33.0707 44.7035 33.3237 44.2719 33.407 43.7964L33.414 43.7538L33.8492 40.7354C33.8763 40.5474 33.9482 40.3681 34.0592 40.2119C34.1702 40.0558 34.3171 39.9271 34.4883 39.8361C34.7554 39.6961 35.0164 39.5477 35.2695 39.3933C35.4362 39.2915 35.6253 39.2296 35.8212 39.2128C36.0172 39.196 36.2145 39.2248 36.3968 39.2966L39.2976 40.4341L39.325 40.4448C39.7847 40.613 40.2905 40.6188 40.7542 40.4612C41.2179 40.3035 41.6101 39.9923 41.8625 39.582C41.8655 39.5762 41.8689 39.5706 41.8726 39.5652L45.2093 33.9432C45.4616 33.5278 45.5539 33.0386 45.4696 32.563C45.3853 32.0875 45.1299 31.6567 44.7492 31.3478ZM34.2429 28.2861C34.1861 29.4644 33.7789 30.6011 33.0709 31.5582C32.3629 32.5153 31.3847 33.2514 30.2551 33.677C29.1256 34.1027 27.8934 34.1995 26.7083 33.9557C25.5233 33.712 24.4366 33.1382 23.5802 32.304C22.7238 31.4699 22.1348 30.4114 21.8846 29.2573C21.6345 28.1031 21.7341 26.9031 22.1712 25.803C22.6084 24.703 23.3644 23.7504 24.3471 23.061C25.3299 22.3716 26.4972 21.9752 27.707 21.9199C28.5756 21.8826 29.4426 22.0218 30.2529 22.3286C31.0633 22.6354 31.7992 23.103 32.4139 23.7018C33.0286 24.3005 33.5087 25.0173 33.8236 25.8065C34.1385 26.5958 34.2813 27.4402 34.2429 28.2861Z" fill="white"/>
</g>
<defs>
<linearGradient id="paint0_linear_1640_11359" x1="65" y1="28" x2="-3.5" y2="28" gradientUnits="userSpaceOnUse">
<stop stop-color="#FF3384"/>
<stop offset="0.491005" stop-color="#A68CDE"/>
<stop offset="1" stop-color="#00EDE8"/>
</linearGradient>
<linearGradient id="paint1_linear_1640_11359" x1="65" y1="28" x2="-3.5" y2="28" gradientUnits="userSpaceOnUse">
<stop stop-color="#FF3384"/>
<stop offset="0.491005" stop-color="#A68CDE"/>
<stop offset="1" stop-color="#00EDE8"/>
</linearGradient>
<clipPath id="clip0_1640_11359">
<rect width="56" height="56" fill="white"/>
</clipPath>
</defs>
</svg>
