<svg viewBox="0 0 56 56" fill="none" xmlns="http://www.w3.org/2000/svg">
<circle cx="28" cy="28" r="28" fill="white" fill-opacity="0.7"/>
<g opacity="0.6">
<path d="M14.6861 46.4667V48.2484C18.5579 50.7224 23.0861 52.0667 27.7528 52.0667C30.9395 52.0667 34.095 51.439 37.0392 50.2195C38.3578 49.6733 39.6225 49.0132 40.8194 48.2483V46.4667C40.8194 43.9913 39.8361 41.6173 38.0858 39.867C36.3354 38.1167 33.9614 37.1333 31.4861 37.1333H24.0194C21.5441 37.1333 19.1701 38.1167 17.4198 39.867C15.6694 41.6173 14.6861 43.9913 14.6861 46.4667Z" fill="url(#paint0_linear_1640_11432)"/>
<path d="M23.793 16.3735C22.7428 17.4237 22.1528 18.8481 22.1528 20.3333C22.1528 21.8185 22.7428 23.2429 23.793 24.2931C24.8432 25.3433 26.2675 25.9333 27.7528 25.9333C29.238 25.9333 30.6623 25.3433 31.7126 24.2931C32.7628 23.2429 33.3528 21.8185 33.3528 20.3333C33.3528 18.8481 32.7628 17.4237 31.7126 16.3735C30.6623 15.3233 29.238 14.7333 27.7528 14.7333C26.2675 14.7333 24.8432 15.3233 23.793 16.3735Z" fill="url(#paint1_linear_1640_11432)"/>
<path fill-rule="evenodd" clip-rule="evenodd" d="M12.2469 46.4667C13.025 47.1131 13.8399 47.7077 14.6861 48.2484V46.4667C14.6861 43.9913 15.6694 41.6173 17.4198 39.867C19.1701 38.1167 21.5441 37.1333 24.0194 37.1333H31.4861C33.9614 37.1333 36.3354 38.1167 38.0858 39.867C39.8361 41.6173 40.8194 43.9913 40.8194 46.4667V48.2483C41.6681 47.706 42.4827 47.111 43.2585 46.4667C43.6862 46.1113 44.1022 45.7409 44.5055 45.3561C44.2447 42.2975 42.913 39.4145 40.7256 37.2271C38.2751 34.7767 34.9516 33.4 31.4861 33.4H24.0194C20.5539 33.4 17.2304 34.7767 14.7799 37.2271C12.5926 39.4145 11.2608 42.2975 11 45.3561C11.404 45.7416 11.8199 46.1119 12.2469 46.4667ZM27.7528 11C25.2774 11 22.9034 11.9833 21.1531 13.7337C19.4028 15.484 18.4194 17.858 18.4194 20.3333C18.4194 22.8087 19.4028 25.1827 21.1531 26.933C22.9034 28.6833 25.2774 29.6667 27.7528 29.6667C30.2281 29.6667 32.6021 28.6833 34.3524 26.933C36.1028 25.1827 37.0861 22.8087 37.0861 20.3333C37.0861 17.858 36.1028 15.484 34.3524 13.7337C32.6021 11.9833 30.2281 11 27.7528 11ZM22.1528 20.3333C22.1528 18.8481 22.7428 17.4237 23.793 16.3735C24.8432 15.3233 26.2675 14.7333 27.7528 14.7333C29.238 14.7333 30.6623 15.3233 31.7126 16.3735C32.7628 17.4237 33.3528 18.8481 33.3528 20.3333C33.3528 21.8185 32.7628 23.2429 31.7126 24.2931C30.6623 25.3433 29.238 25.9333 27.7528 25.9333C26.2675 25.9333 24.8432 25.3433 23.793 24.2931C22.7428 23.2429 22.1528 21.8185 22.1528 20.3333Z" fill="url(#paint2_linear_1640_11432)"/>
</g>
<defs>
<linearGradient id="paint0_linear_1640_11432" x1="49.8903" y1="31.5333" x2="8.9059" y2="31.5333" gradientUnits="userSpaceOnUse">
<stop stop-color="#FF3384"/>
<stop offset="0.491005" stop-color="#A68CDE"/>
<stop offset="1" stop-color="#00EDE8"/>
</linearGradient>
<linearGradient id="paint1_linear_1640_11432" x1="49.8903" y1="31.5333" x2="8.9059" y2="31.5333" gradientUnits="userSpaceOnUse">
<stop stop-color="#FF3384"/>
<stop offset="0.491005" stop-color="#A68CDE"/>
<stop offset="1" stop-color="#00EDE8"/>
</linearGradient>
<linearGradient id="paint2_linear_1640_11432" x1="49.8903" y1="31.5333" x2="8.9059" y2="31.5333" gradientUnits="userSpaceOnUse">
<stop stop-color="#FF3384"/>
<stop offset="0.491005" stop-color="#A68CDE"/>
<stop offset="1" stop-color="#00EDE8"/>
</linearGradient>
</defs>
</svg>
