<svg  viewBox="0 0 56 56" fill="none" xmlns="http://www.w3.org/2000/svg">
<g clip-path="url(#clip0_1640_11381)">
<path fill-rule="evenodd" clip-rule="evenodd" d="M0 27.9977C0 12.5403 12.5403 0 27.9977 0C43.4552 0 55.9955 12.5403 55.9955 27.9977C55.9955 43.4552 43.4552 55.9955 27.9977 55.9955C12.5403 55.9955 0 43.4552 0 27.9977ZM27.9977 4C14.7494 4 4 14.7494 4 27.9977C4 41.2461 14.7494 51.9955 27.9977 51.9955C41.2461 51.9955 51.9955 41.2461 51.9955 27.9977C51.9955 14.7494 41.2461 4 27.9977 4ZM21.665 17.9777C21.665 16.8731 22.5605 15.9777 23.665 15.9777H40.9969C42.1014 15.9777 42.9969 16.8731 42.9969 17.9777C42.9969 19.0823 42.1014 19.9777 40.9969 19.9777H23.665C22.5605 19.9777 21.665 19.0823 21.665 17.9777ZM21.665 27.7269C21.665 26.6223 22.5605 25.7269 23.665 25.7269H40.9969C42.1014 25.7269 42.9969 26.6223 42.9969 27.7269C42.9969 28.8314 42.1014 29.7269 40.9969 29.7269H23.665C22.5605 29.7269 21.665 28.8314 21.665 27.7269ZM21.665 37.3406C21.665 36.236 22.5605 35.3406 23.665 35.3406H40.9969C42.1014 35.3406 42.9969 36.236 42.9969 37.3406C42.9969 38.4452 42.1014 39.3406 40.9969 39.3406H23.665C22.5605 39.3406 21.665 38.4452 21.665 37.3406ZM16.998 17.9778C16.998 18.4841 16.5876 18.8946 16.0813 18.8946C15.575 18.8946 15.1645 18.4841 15.1645 17.9778C15.1645 17.4715 15.575 17.0611 16.0813 17.0611C16.5876 17.0611 16.998 17.4715 16.998 17.9778ZM16.0813 14.8946C14.3785 14.8946 12.998 16.275 12.998 17.9778C12.998 19.6807 14.3785 21.0611 16.0813 21.0611C17.7841 21.0611 19.1645 19.6807 19.1645 17.9778C19.1645 16.275 17.7841 14.8946 16.0813 14.8946ZM16.0813 28.779C16.5876 28.779 16.998 28.3686 16.998 27.8623C16.998 27.3559 16.5876 26.9455 16.0813 26.9455C15.575 26.9455 15.1645 27.3559 15.1645 27.8623C15.1645 28.3686 15.575 28.779 16.0813 28.779ZM12.998 27.8623C12.998 26.1594 14.3785 24.779 16.0813 24.779C17.7841 24.779 19.1645 26.1594 19.1645 27.8623C19.1645 29.5651 17.7841 30.9455 16.0813 30.9455C14.3785 30.9455 12.998 29.5651 12.998 27.8623ZM16.998 37.4761C16.998 37.9824 16.5876 38.3929 16.0813 38.3929C15.575 38.3929 15.1645 37.9824 15.1645 37.4761C15.1645 36.9698 15.575 36.5593 16.0813 36.5593C16.5876 36.5593 16.998 36.9698 16.998 37.4761ZM16.0813 34.3929C14.3785 34.3929 12.998 35.7733 12.998 37.4761C12.998 39.1789 14.3785 40.5593 16.0813 40.5593C17.7841 40.5593 19.1645 39.1789 19.1645 37.4761C19.1645 35.7733 17.7841 34.3929 16.0813 34.3929Z" fill="url(#paint0_linear_1640_11381)"/>
</g>
<defs>
<linearGradient id="paint0_linear_1640_11381" x1="64.9948" y1="27.9977" x2="-3.49972" y2="27.9977" gradientUnits="userSpaceOnUse">
<stop stop-color="#FF3384"/>
<stop offset="0.491005" stop-color="#A68CDE"/>
<stop offset="1" stop-color="#00EDE8"/>
</linearGradient>
<clipPath id="clip0_1640_11381">
<rect width="55.9955" height="55.9955" fill="white"/>
</clipPath>
</defs>
</svg>
