<svg width="42" height="42" viewBox="0 0 42 42" fill="none" xmlns="http://www.w3.org/2000/svg">
<path d="M36.75 12.74V8.75C36.75 6.825 35.175 5.25 33.25 5.25H8.75C7.82174 5.25 6.9315 5.61875 6.27513 6.27513C5.61875 6.9315 5.25 7.82174 5.25 8.75V33.25C5.25 34.1783 5.61875 35.0685 6.27513 35.7249C6.9315 36.3813 7.82174 36.75 8.75 36.75H33.25C35.175 36.75 36.75 35.175 36.75 33.25V29.26C37.279 28.9546 37.7188 28.5161 38.0258 27.988C38.3328 27.46 38.4963 26.8608 38.5 26.25V15.75C38.4963 15.1392 38.3328 14.54 38.0258 14.012C37.7188 13.4839 37.279 13.0454 36.75 12.74ZM35 15.75V26.25H22.75V15.75H35ZM8.75 33.25V8.75H33.25V12.25H22.75C20.825 12.25 19.25 13.825 19.25 15.75V26.25C19.25 28.175 20.825 29.75 22.75 29.75H33.25V33.25H8.75Z" fill="white"/>
<path d="M28 23.625C29.4497 23.625 30.625 22.4497 30.625 21C30.625 19.5503 29.4497 18.375 28 18.375C26.5503 18.375 25.375 19.5503 25.375 21C25.375 22.4497 26.5503 23.625 28 23.625Z" fill="white"/>
</svg>
