<svg width="42" height="42" viewBox="0 0 42 42" fill="none" xmlns="http://www.w3.org/2000/svg">
<path d="M21.0012 39.1828C10.9748 39.1828 2.81836 31.0254 2.81836 21C2.81836 10.9746 10.9748 2.81714 21.0012 2.81714C31.0266 2.81714 39.182 10.9746 39.182 21C39.182 31.0254 31.0266 39.1828 21.0012 39.1828ZM21.0012 4.39214C11.8431 4.39214 4.39336 11.8419 4.39336 21C4.39336 30.1581 11.8442 37.6078 21.0012 37.6078C30.1583 37.6078 37.607 30.157 37.607 21C37.607 11.8429 30.1583 4.39214 21.0012 4.39214Z" fill="white" stroke="white" stroke-width="2"/>
<path d="M31.468 29.3129L28.4062 27.3945V28.5296H13.262V27.8114L20.0773 21.0198L23.5518 24.0522L29.1178 17.0613L30.0828 17.8184L31.0624 13.3055L26.4487 14.9697L27.5754 15.8538L23.2966 21.2309L20.1404 18.4767L13.262 25.3197V13.8002H14.3971L12.4787 10.7373L10.5625 13.8002H11.6954V30.0972H28.4062V31.2323L31.468 29.3129Z" fill="white" stroke="white"/>
</svg>
