<svg width="42" height="42" viewBox="0 0 42 42" fill="none" xmlns="http://www.w3.org/2000/svg">
<path d="M8.75 14H5.25V31.5H36.75V14H34.125M27.125 12.25C27.8099 12.646 28.3964 13.1917 28.8408 13.8463C29.2851 14.5009 29.5757 15.2474 29.691 16.0302C29.8062 16.8129 29.7431 17.6115 29.5062 18.3664C29.2694 19.1212 28.8651 19.8128 28.3234 20.3895C27.7817 20.9661 27.1167 21.4128 26.3781 21.6963C25.6395 21.9798 24.8463 22.0926 24.058 22.0265C23.2696 21.9603 22.5064 21.7169 21.8253 21.3143C21.1443 20.9117 20.563 20.3603 20.125 19.7015M22.75 10.5C22.75 11.8924 22.1969 13.2277 21.2123 14.2123C20.2277 15.1969 18.8924 15.75 17.5 15.75C16.1076 15.75 14.7723 15.1969 13.7877 14.2123C12.8031 13.2277 12.25 11.8924 12.25 10.5C12.25 9.10761 12.8031 7.77226 13.7877 6.78769C14.7723 5.80312 16.1076 5.25 17.5 5.25C18.8924 5.25 20.2277 5.80312 21.2123 6.78769C22.1969 7.77226 22.75 9.10761 22.75 10.5V10.5Z" stroke="white" stroke-width="3" stroke-linecap="round" stroke-linejoin="round"/>
</svg>
