<svg width="42" height="42" viewBox="0 0 42 42" fill="none" xmlns="http://www.w3.org/2000/svg">
<path d="M13.125 7C9.7475 7 7 9.7475 7 13.125C7 16.5025 9.7475 19.25 13.125 19.25C16.5025 19.25 19.25 16.5025 19.25 13.125C19.25 9.7475 16.5025 7 13.125 7ZM13.125 15.75C11.6725 15.75 10.5 14.5775 10.5 13.125C10.5 11.6725 11.6725 10.5 13.125 10.5C14.5775 10.5 15.75 11.6725 15.75 13.125C15.75 14.5775 14.5775 15.75 13.125 15.75ZM28.875 22.75C25.4975 22.75 22.75 25.4975 22.75 28.875C22.75 32.2525 25.4975 35 28.875 35C32.2525 35 35 32.2525 35 28.875C35 25.4975 32.2525 22.75 28.875 22.75ZM28.875 31.5C27.4225 31.5 26.25 30.3275 26.25 28.875C26.25 27.4225 27.4225 26.25 28.875 26.25C30.3275 26.25 31.5 27.4225 31.5 28.875C31.5 30.3275 30.3275 31.5 28.875 31.5ZM9.4675 35L7 32.5325L32.5325 7L35 9.4675L9.4675 35Z" fill="white"/>
</svg>
