<svg width="42" height="42" viewBox="0 0 42 42" fill="none" xmlns="http://www.w3.org/2000/svg">
<path d="M1.54102 1.59961V8.13389C5.2065 8.59179 8.22796 10.1819 11.1105 12.0022L9.08026 13.6479L17.4296 17.9058L15.1377 8.73633L13.0127 10.459C11.3536 7.17691 9.50354 4.0827 7.0449 1.59961H1.54102ZM24.2945 1.59961C23.0129 3.95924 21.8986 6.36776 20.8673 8.83116L18.3907 8.30566L20.5186 17.5137L26.0196 9.92578L23.5922 9.41062C26.323 6.56029 29.1372 3.84948 32.4566 1.59961H24.2945ZM40.4957 9.29775C37.3795 9.50135 34.5862 10.9119 31.8799 12.6533L30.857 9.98484L24.2894 16.7806L33.6487 17.2676L32.5618 14.4323C35.2065 14.3557 37.851 14.5822 40.4957 16.1858V9.29775ZM24.5792 19.8002C24.146 19.8101 23.7416 19.9984 23.1897 20.5873L22.6513 21.1589L22.0925 20.6076C21.4865 20.0105 21.0083 19.8456 20.5236 19.8669C20.039 19.8882 19.4691 20.1431 18.8317 20.659L18.3217 21.0716L17.8372 20.6308C17.1071 19.9703 16.4849 19.7745 15.8889 19.8053C15.4552 19.8278 15.0051 19.9912 14.5559 20.277L17.9166 26.3217C19.1843 27.0971 21.7748 27.3887 23.5562 26.4909L26.8042 20.4744C26.1881 20.2232 25.6344 19.9657 25.1558 19.8669C24.9826 19.8311 24.8218 19.8049 24.6661 19.8002C24.6371 19.7995 24.6081 19.7995 24.5792 19.8002ZM17.1988 27.6908C15.7194 28.736 14.5315 30.5388 14.0714 33.1791C13.6255 35.7381 14.328 37.4665 15.5711 38.6443C16.8142 39.8223 18.6802 40.4275 20.575 40.4029C22.4699 40.3782 24.3596 39.7212 25.6301 38.5214C26.9008 37.3215 27.6194 35.6153 27.2119 33.1739C26.7905 30.6509 25.7025 28.8962 24.3252 27.8342C21.9888 29.0693 19.0675 28.8068 17.1988 27.6906V27.6908Z" fill="white"/>
</svg>
