<svg width="42" height="42" viewBox="0 0 42 42" fill="none" xmlns="http://www.w3.org/2000/svg">
<path d="M33.25 5.25H8.75C6.8075 5.25 5.25 6.8075 5.25 8.75V33.25C5.25 34.1783 5.61875 35.0685 6.27513 35.7249C6.9315 36.3813 7.82174 36.75 8.75 36.75H33.25C35.1925 36.75 36.75 35.1925 36.75 33.25V8.75C36.75 7.82174 36.3813 6.9315 35.7249 6.27513C35.0685 5.61875 34.1783 5.25 33.25 5.25ZM33.25 33.25H8.75V8.75H33.25V33.25ZM29.75 26.635C29.75 28.35 28.35 29.75 26.635 29.75C24.92 29.75 23.5375 28.35 23.5375 26.635C23.5375 24.92 24.92 23.5375 26.635 23.5375C28.35 23.5375 29.75 24.92 29.75 26.635ZM14.875 29.8025L12.25 27.1775L27.1775 12.25L29.8025 14.875L14.875 29.8025ZM12.3375 15.4525C12.3375 13.72 13.72 12.3375 15.4525 12.3375C17.1675 12.3375 18.55 13.72 18.55 15.4525C18.55 17.1675 17.1675 18.55 15.4525 18.55C13.72 18.55 12.3375 17.1675 12.3375 15.4525Z" fill="white"/>
</svg>
