<svg width="42" height="42" viewBox="0 0 42 42" fill="none" xmlns="http://www.w3.org/2000/svg">
<path d="M33.25 7H31.5V3.5H28V7H14V3.5H10.5V7H8.75C6.8075 7 5.2675 8.575 5.2675 10.5L5.25 35C5.25 35.9283 5.61875 36.8185 6.27513 37.4749C6.9315 38.1313 7.82174 38.5 8.75 38.5H33.25C35.175 38.5 36.75 36.925 36.75 35V10.5C36.75 8.575 35.175 7 33.25 7ZM33.25 35H8.75V17.5H33.25V35ZM33.25 14H8.75V10.5H33.25V14ZM15.75 24.5H12.25V21H15.75V24.5ZM22.75 24.5H19.25V21H22.75V24.5ZM29.75 24.5H26.25V21H29.75V24.5ZM15.75 31.5H12.25V28H15.75V31.5ZM22.75 31.5H19.25V28H22.75V31.5ZM29.75 31.5H26.25V28H29.75V31.5Z" fill="white"/>
</svg>
